# Blender 5.2.2 LTS
# www.blender.org
mtllib rifle.mtl
o rifle
v -5.546248 4.868874 0.688580
v -6.243299 2.682188 0.688580
v -10.799162 0.557030 0.878563
v -4.450829 2.682188 0.688580
v -3.558122 4.347122 0.688580
v -1.200553 3.675602 0.826326
v -1.011189 5.812665 0.809896
v 6.564744 3.857005 0.826327
v 6.632746 5.456656 0.826327
v -5.658134 3.541581 0.688580
v -10.483629 2.468762 0.878563
v -3.865664 3.541581 0.688580
v -1.089427 4.676571 0.688580
v 6.733474 4.525301 0.826327
v -1.184668 3.825121 0.688580
v -1.000675 5.685059 0.602104
v -1.105312 4.618663 0.826326
v -1.788416 4.737747 0.688580
v -2.817749 3.359916 0.688580
v -2.477545 4.109076 0.688580
v 6.080191 3.841418 0.786068
v 1.654741 3.877377 0.786068
v 6.176350 4.890121 0.786068
v 1.709019 4.997998 0.786068
v 6.117970 4.489430 1.033232
v 1.650639 4.597308 1.033232
v 6.078172 3.610578 1.056096
v 1.652721 3.646537 1.056096
v -7.229777 4.530376 0.688580
v -9.069235 0.619566 0.688580
v -7.203051 3.210045 0.688580
v 1.387880 3.665229 0.826326
v 3.976312 3.867378 0.826326
v 4.102142 5.320642 0.826326
v 1.537535 5.625796 0.826326
v 1.507617 4.587543 0.826326
v 4.120546 4.556422 0.826326
v 2.716104 3.872429 0.826326
v 2.921317 5.479498 0.826326
v 2.848411 4.571573 0.826326
v -9.371099 4.553739 0.688580
v -9.317901 2.756203 0.688580
v -10.008807 0.724419 0.688580
v -9.593476 4.824676 0.797981
v -10.412457 4.981971 0.797981
v -9.541615 2.780966 0.878563
v -10.406872 0.463756 0.878563
v 9.115276 5.658326 0.870257
v 9.117433 3.747816 0.930831
v 8.360917 5.658326 0.870257
v 8.363455 3.726048 0.934081
v 9.115276 5.374822 0.581403
v 9.103045 3.834222 0.484055
v 8.360917 5.374822 0.581403
v 8.349068 3.812454 0.487305
v 8.414527 4.588476 0.834841
v 9.168886 4.588476 0.834841
v 9.168886 4.446723 0.478678
v 8.414527 4.446723 0.478678
v 12.062340 5.647215 0.870257
v 11.978928 3.704412 0.930831
v 11.308083 5.635800 0.870257
v 11.224645 3.713849 0.934081
v 12.067457 5.363749 0.581404
v 11.968819 3.791325 0.484055
v 11.313202 5.352334 0.581403
v 11.214537 3.800762 0.487305
v 11.266006 4.598121 0.836148
v 12.019596 4.566921 0.836148
v 12.012601 4.425314 0.479984
v 11.259012 4.456512 0.479984
v 0.052086 5.839388 0.560392
v 0.052086 6.259127 0.464014
v 1.260107 5.839388 0.560392
v 1.260107 6.259127 0.464014
v 1.260107 6.211888 0.157439
v 0.052086 6.208555 0.135808
v 0.052086 6.234043 0.301226
v 1.260107 6.234065 0.301364
v 0.052086 6.427694 0.286821
v 0.052086 6.402205 0.121404
v 1.260107 6.405538 0.143035
v 1.260107 6.427715 0.286959
v 0.052086 6.709798 0.199891
v 0.052086 6.584657 0.088749
v 1.260107 6.601021 0.103283
v 1.260107 6.709902 0.199984
v -4.450829 2.296842 0.344290
v -5.546248 5.036255 0.344290
v -6.243299 2.296842 0.344290
v -3.558122 4.514504 0.344290
v -1.184668 3.439776 0.344290
v -1.000675 5.904896 0.257814
v 6.503504 3.452132 0.413163
v 6.632746 5.836408 0.413163
v 6.733474 4.628639 0.413163
v -10.995262 0.249804 0.493089
v -1.200553 3.255169 0.413163
v -1.011189 6.096364 0.396733
v -2.817749 2.974571 0.344290
v -1.788416 4.905128 0.344290
v -7.242020 4.690594 0.344290
v -9.098161 0.230220 0.344290
v 1.537535 6.005548 0.413163
v 4.102142 5.700393 0.413163
v 1.367466 3.249982 0.413163
v 3.935485 3.457319 0.413163
v 2.685215 3.459844 0.413163
v 2.921317 5.859248 0.413163
v -9.400103 4.704149 0.344290
v -10.077330 0.329597 0.344290
v -10.533239 5.206208 0.378652
v -9.604252 5.060642 0.368047
v -10.495102 0.133569 0.482483
v -10.588634 2.645815 0.378652
v 1.630144 3.623942 0.538284
v 6.023542 3.604495 0.538284
v 6.022609 3.191825 0.684321
v 1.629211 3.211272 0.684321
v -5.546248 4.868874 -0.688580
v -6.243299 2.682188 -0.688580
v -10.799162 0.557030 -0.878563
v -3.558122 4.580122 -0.000000
v -4.450829 2.192755 -0.000000
v -4.450829 2.682188 -0.688580
v -3.558122 4.347122 -0.688580
v -6.243299 2.192755 -0.000000
v -11.122476 0.023787 -0.000000
v -10.623384 2.617730 -0.000000
v -5.546248 5.101873 -0.000000
v -1.011189 6.168766 -0.000000
v -1.184668 3.335688 -0.000000
v -1.200553 3.675602 -0.826326
v -1.011189 5.812665 -0.809896
v 6.632746 5.908809 0.000000
v 6.442264 3.328517 0.000000
v 6.564744 3.857005 -0.826326
v 6.632746 5.456656 -0.826326
v -5.658134 3.541581 -0.688580
v -10.483629 2.468762 -0.878563
v -3.865664 3.541581 -0.688580
v -1.089427 4.676571 -0.688580
v 6.733474 4.525301 0.000000
v 6.733474 4.525301 -0.826326
v -1.200553 3.115993 -0.000000
v -1.184668 3.825121 -0.688580
v -0.994186 5.974072 -0.000000
v -1.000675 5.685059 -0.602104
v -1.105312 4.618663 -0.826326
v -1.788416 4.737747 -0.688580
v -1.788416 4.970746 -0.000000
v -2.817749 2.870483 -0.000000
v -2.817749 3.359916 -0.688580
v -2.477545 4.109076 -0.688580
v 6.080191 3.841418 -0.786067
v 1.654741 3.877377 -0.786068
v 6.010389 3.558512 0.000000
v 1.654741 3.558512 0.000000
v 6.176350 4.890121 -0.786067
v 1.709019 4.997998 -0.786068
v 6.117970 4.489430 -1.033232
v 1.650639 4.597308 -1.033232
v 6.078172 3.610578 -1.056096
v 6.010734 2.931684 0.000000
v 1.652721 3.646537 -1.056096
v 1.655086 2.931684 0.000000
v -7.229777 4.530376 -0.688580
v -9.069235 0.619566 -0.688580
v -9.127087 0.122133 -0.000000
v -7.254263 4.749048 -0.000000
v -7.203051 3.210045 -0.688580
v 1.387880 3.665229 -0.826326
v 3.976312 3.867378 -0.826326
v 4.102142 5.320642 -0.826326
v 1.537535 5.625796 -0.826326
v 1.347053 3.115993 0.000000
v 3.894658 3.328517 0.000000
v 4.102142 5.772795 0.000000
v 1.537535 6.077949 0.000000
v 1.507617 4.587543 -0.826326
v 4.120546 4.556422 -0.826326
v 2.716104 3.872429 -0.826326
v 2.921317 5.479498 -0.826326
v 2.654327 3.328517 0.000000
v 2.921317 5.931650 0.000000
v 2.848411 4.571573 -0.826326
v -9.371099 4.553739 -0.688580
v -10.145853 0.216034 -0.000000
v -9.429106 4.752796 -0.000000
v -9.317901 2.756203 -0.688580
v -10.008807 0.724419 -0.688580
v -9.593476 4.824676 -0.797981
v -10.412457 4.981971 -0.797982
v -10.595090 5.265965 -0.000000
v -10.584702 -0.116946 -0.000000
v -9.626351 5.130589 -0.000000
v -9.541615 2.780966 -0.878563
v -10.406872 0.463756 -0.878563
v 9.115276 5.658326 -0.870256
v 9.117433 3.747816 -0.930830
v 8.360917 5.658326 -0.870256
v 8.363455 3.726048 -0.934080
v 9.115276 5.374822 -0.581403
v 9.103045 3.834222 -0.484054
v 8.360917 5.374822 -0.581403
v 8.349068 3.812454 -0.487304
v 8.360917 6.149522 0.000000
v 8.360917 5.751365 0.000000
v 9.115276 6.149522 0.000000
v 9.115276 5.751365 0.000000
v 8.414527 4.588476 -0.834840
v 9.168886 4.588476 -0.834840
v 9.168886 4.446723 -0.478677
v 8.414527 4.446723 -0.478677
v 9.115276 3.165061 0.000000
v 8.360917 3.165061 0.000000
v 9.115276 3.525474 0.000000
v 8.360917 3.525474 0.000000
v 12.062340 5.647215 -0.870256
v 11.978928 3.704412 -0.930830
v 11.308083 5.635800 -0.870256
v 11.224645 3.713849 -0.934080
v 12.067457 5.363749 -0.581402
v 11.968819 3.791325 -0.484054
v 11.313202 5.352334 -0.581403
v 11.214537 3.800762 -0.487304
v 11.299215 6.126929 0.000000
v 11.306403 5.728827 0.000000
v 12.053473 6.138343 0.000001
v 12.060660 5.740241 0.000001
v 11.266006 4.598121 -0.836147
v 12.019596 4.566921 -0.836147
v 12.012601 4.425314 -0.479983
v 11.259012 4.456512 -0.479983
v 11.897843 3.131520 0.000001
v 11.144254 3.162719 0.000000
v 11.965802 3.482386 0.000001
v 11.212213 3.513585 0.000000
v 0.052086 5.839388 0.000000
v 0.052086 6.154353 0.000000
v 1.260107 5.839388 0.000000
v 1.260107 6.154353 0.000000
v 0.052086 5.839388 -0.560392
v 0.052086 6.259127 -0.464014
v 1.260107 5.839388 -0.560392
v 1.260107 6.259127 -0.464014
v 1.260107 6.211888 -0.157439
v 0.052086 6.208555 -0.135808
v 0.052086 6.234043 -0.301226
v 1.260107 6.234065 -0.301364
v 0.052086 6.427694 -0.286821
v 0.052086 6.402205 -0.121404
v 1.260107 6.405538 -0.143035
v 1.260107 6.427715 -0.286959
v 0.052086 6.709798 -0.199891
v 0.052086 6.584657 -0.088749
v 1.260107 6.601021 -0.103283
v 1.260107 6.709902 -0.199984
v 0.052086 6.792483 0.000000
v 0.052086 6.667342 0.000000
v 1.260107 6.683706 0.000000
v 1.260107 6.792587 0.000000
v -4.450829 2.296842 -0.344290
v -5.546248 5.036255 -0.344290
v -6.243299 2.296842 -0.344290
v -3.558122 4.514504 -0.344290
v -1.184668 3.439776 -0.344290
v -1.000675 5.904896 -0.257814
v 6.503504 3.452132 -0.413163
v 6.632746 5.836408 -0.413163
v 6.733474 4.628639 -0.413163
v -10.995262 0.249804 -0.493090
v -1.200553 3.255169 -0.413163
v -1.011189 6.096364 -0.396733
v -2.817749 2.974571 -0.344290
v -1.788416 4.905128 -0.344290
v -7.242020 4.690594 -0.344290
v -9.098161 0.230220 -0.344290
v 1.537535 6.005548 -0.413163
v 4.102142 5.700393 -0.413163
v 1.367466 3.249982 -0.413163
v 3.935485 3.457319 -0.413163
v 2.685215 3.459844 -0.413163
v 2.921317 5.859248 -0.413163
v -9.400103 4.704149 -0.344290
v -10.077330 0.329597 -0.344290
v -10.533239 5.206208 -0.378653
v -9.604252 5.060642 -0.368048
v -10.495102 0.133569 -0.482484
v -10.588634 2.645815 -0.378653
v 1.630144 3.623942 -0.538284
v 6.023542 3.604495 -0.538284
v 6.022609 3.191825 -0.684320
v 1.629211 3.211272 -0.684320
v -1.821701 2.893080 -0.190748
v -1.854010 3.606899 -0.190748
v -1.431260 2.710112 -0.190748
v -1.339228 3.650653 -0.190748
v -1.821701 2.893080 0.190748
v -1.854010 3.606899 0.190748
v -1.431260 2.710112 0.190748
v -1.339228 3.650653 0.190748
v -2.043685 2.389379 -0.190748
v -1.919848 2.077169 -0.190748
v -2.043685 2.389379 0.190748
v -1.919848 2.077169 0.190748
v -2.637397 2.139759 -0.190748
v -2.598990 1.764557 -0.190748
v -2.637397 2.139759 0.190748
v -2.598990 1.764557 0.190748
v -3.232024 1.894093 -0.190748
v -3.477831 1.464001 -0.190748
v -3.232024 1.894093 0.190748
v -3.477831 1.464001 0.190748
v -3.405758 2.497550 -0.190748
v -3.748358 2.326479 -0.190748
v -3.405758 2.497550 0.190748
v -3.748358 2.326479 0.190748
v -4.095019 2.968949 -0.190748
v -4.525854 2.792518 -0.190748
v -4.095019 2.968949 0.190748
v -4.525854 2.792518 0.190748
v -2.745048 2.985250 0.082289
v -2.677176 2.758947 0.082289
v -3.016374 2.968405 0.082289
v -2.948502 2.742102 0.082289
v -2.745048 2.985250 -0.082289
v -2.677176 2.758947 -0.082289
v -3.016374 2.968405 -0.082289
v -2.948502 2.742102 -0.082289
v -2.652860 2.516175 -0.072325
v -2.652860 2.516175 0.072325
v -2.578356 2.601329 0.072325
v -2.578356 2.601329 -0.072325
v -2.400380 2.412350 -0.046703
v -2.400380 2.412350 0.046702
v -2.352270 2.467337 0.046702
v -2.352270 2.467337 -0.046703
v -2.098152 4.716599 0.114305
v -2.021728 5.105485 0.114305
v -1.476734 5.007338 0.114305
v -1.679602 5.265307 0.114305
v -2.098152 4.716599 -0.114305
v -2.021728 5.105485 -0.114305
v -1.476734 5.007338 -0.114305
v -1.679602 5.265307 -0.114305
v -2.176679 5.406904 -0.100465
v -2.176679 5.406904 0.100464
v -2.229651 5.258931 0.100464
v -2.229651 5.258931 -0.100465
v -2.471036 5.395336 -0.064873
v -2.471036 5.395336 0.064873
v -2.594653 5.334786 0.064873
v -2.594653 5.334786 -0.064873
v 13.809305 3.414490 0.000001
v 5.718127 3.414490 0.000000
v 6.491755 4.437157 0.000000
v 15.118917 4.437157 0.000001
v 6.491755 4.643026 0.497012
v 15.118917 4.643025 0.497012
v 6.491755 5.140037 0.702880
v 15.118918 5.140037 0.702881
v 6.491755 5.637048 0.497012
v 15.118918 5.637048 0.497012
v 6.491755 5.842916 0.000000
v 15.118918 5.842916 0.000001
v 6.491755 5.637048 -0.497011
v 15.118918 5.637048 -0.497011
v 6.491755 5.140037 -0.702880
v 15.118918 5.140037 -0.702879
v 6.491755 4.643026 -0.497011
v 15.118917 4.643025 -0.497011
v 5.718127 3.574623 0.386595
v 13.809305 3.574623 0.386595
v 5.718127 3.961217 0.546727
v 13.809306 3.961217 0.546728
v 5.718127 4.347812 0.386595
v 13.809306 4.347812 0.386595
v 5.718127 4.507944 0.000000
v 13.809306 4.507944 0.000001
v 5.718127 4.347812 -0.386594
v 13.809306 4.347812 -0.386594
v 5.718127 3.961217 -0.546727
v 13.809306 3.961217 -0.546727
v 5.718127 3.574623 -0.386594
v 13.809305 3.574623 -0.386594
v 15.054212 4.266435 -0.305218
v 15.054212 4.392860 0.000001
v 15.054212 3.961217 0.431645
v 15.054211 3.655998 0.305219
v 15.054212 4.266435 0.305219
v 15.054211 3.529573 0.000001
v 15.054212 3.961217 -0.431643
v 15.054211 3.655998 -0.305218
v 12.200385 4.149777 -0.188560
v 12.200385 4.227881 0.000000
v 12.200385 3.961217 0.266665
v 12.200385 3.772657 0.188561
v 12.200385 4.149777 0.188561
v 12.200385 3.694552 0.000000
v 12.200385 3.961217 -0.266664
v 12.200385 3.772657 -0.188560
v 16.014351 4.768778 0.371259
v 16.014351 4.614998 0.000001
v 16.014353 5.140037 0.525039
v 16.014353 5.511294 0.371259
v 16.014353 5.665074 0.000001
v 16.014353 5.511294 -0.371258
v 16.014353 5.140037 -0.525038
v 16.014351 4.768778 -0.371258
v 15.118917 4.548638 0.591399
v 15.118917 4.303673 0.000001
v 15.118918 5.140037 0.836365
v 15.118918 5.731435 0.591399
v 15.118918 5.976400 0.000001
v 15.118918 5.731435 -0.591398
v 15.118918 5.140037 -0.836363
v 15.118917 4.548638 -0.591398
v 15.931852 4.548637 0.591399
v 15.931852 4.303672 0.000001
v 15.931856 5.140037 0.836365
v 15.931856 5.731435 0.591399
v 15.931856 5.976400 0.000001
v 15.931856 5.731435 -0.591398
v 15.931856 5.140037 -0.836363
v 15.931852 4.548637 -0.591398
v 13.809305 3.288540 0.000001
v 13.809305 3.485563 0.475655
v 13.809306 3.961217 0.672678
v 13.809306 4.436872 0.475655
v 13.809306 4.633894 0.000001
v 13.809306 4.436872 -0.475654
v 13.809306 3.961217 -0.672677
v 13.809305 3.485563 -0.475654
v 15.054211 4.502072 -0.540855
v 15.054211 4.536588 0.000001
v 15.054211 3.961217 0.764886
v 15.054210 3.420361 0.540857
v 15.054211 4.502072 0.540857
v 15.054210 3.196331 0.000001
v 15.054211 3.961217 -0.764885
v 15.054210 3.420361 -0.540855
v 14.560138 4.543941 -0.582724
v 14.560138 4.785314 0.000001
v 14.560138 3.961217 0.824097
v 14.560137 3.378493 0.582725
v 14.560138 4.543941 0.582725
v 14.560137 3.137120 0.000001
v 14.560138 3.961217 -0.824096
v 14.560137 3.378493 -0.582724
v 14.922464 4.639551 -0.678334
v 14.922464 4.692604 0.000001
v 14.922464 3.961217 0.959311
v 14.922462 3.282882 0.678335
v 14.922464 4.639551 0.678335
v 14.922462 3.001906 0.000001
v 14.922464 3.961217 -0.959310
v 14.922462 3.282882 -0.678334
v 14.449944 4.951046 0.188993
v 14.449944 4.872763 0.000001
v 14.449944 5.140038 0.267276
v 14.449944 5.329030 0.188993
v 14.449944 5.407313 0.000001
v 14.449944 5.329030 -0.188992
v 14.449944 5.140038 -0.267275
v 14.449944 4.951046 -0.188992
v 9.246132 4.388619 0.000000
v 12.133987 4.449291 0.000001
v 12.133987 4.655160 0.497012
v 9.246132 4.594489 0.497012
v 12.133988 5.152171 0.702880
v 9.246133 5.091499 0.702880
v 12.133988 5.649182 0.497012
v 9.246133 5.588511 0.497012
v 12.133988 5.855051 0.000000
v 9.246133 5.794379 0.000000
v 12.133988 5.649182 -0.497011
v 9.246133 5.588511 -0.497011
v 12.133988 5.152171 -0.702880
v 9.246133 5.091499 -0.702880
v 12.133987 4.655160 -0.497011
v 9.246132 4.594489 -0.497011
v 10.885626 4.414209 -0.348391
v 8.317531 4.347812 -0.420758
v 10.885626 4.027615 0.584931
v 8.317531 3.961217 0.512563
v 10.885626 4.574341 0.038204
v 8.317531 4.507944 -0.034164
v 10.885624 3.641020 0.424798
v 8.317531 3.574623 0.352431
v 8.317531 3.414490 -0.034164
v 10.885624 3.480887 0.038204
v 10.885626 4.414209 0.424798
v 8.317531 4.347812 0.352431
v 10.885626 4.027615 -0.508523
v 8.317531 3.961217 -0.580891
v 10.885624 3.641020 -0.348391
v 8.317531 3.574623 -0.420758
v 15.323235 5.857261 -0.095275
v 15.373279 6.066643 -0.068738
v 15.775310 5.857261 -0.095275
v 15.614599 6.066643 -0.068738
v 15.323235 5.857261 0.095276
v 15.373279 6.066643 0.068739
v 15.775310 5.857261 0.095276
v 15.614599 6.066643 0.068739
v 15.456277 6.235606 -0.059163
v 15.658075 6.242318 -0.059163
v 15.658075 6.242318 0.059165
v 15.456277 6.235606 0.059165
v 15.474312 6.435636 -0.008620
v 15.581545 6.435636 -0.008620
v 15.581545 6.435636 0.008621
v 15.474312 6.435636 0.008621
v -0.621706 5.204937 0.593523
v -0.473425 5.275589 0.602384
v -0.500577 4.947982 0.615319
v -0.352295 5.018634 0.624179
v -0.642701 5.216811 0.850189
v -0.494419 5.287463 0.859049
v -0.521572 4.959856 0.871984
v -0.373290 5.030508 0.880844
v -0.635283 5.041134 0.599990
v -0.338719 5.182438 0.617712
v -0.655757 5.052642 0.910367
v -0.359193 5.193946 0.928088
v 0.843656 5.215731 0.591091
v 1.008057 5.214035 0.596284
v 0.840015 4.931736 0.613614
v 1.004417 4.930041 0.618807
v 0.835753 5.236202 0.847952
v 1.000155 5.234507 0.853145
v 0.832113 4.952209 0.870474
v 0.996514 4.950512 0.875668
v 0.759635 5.074581 0.599756
v 1.088438 5.071190 0.610143
v 0.753239 5.094617 0.910309
v 1.082042 5.091227 0.920695
v 0.987809 4.221945 0.606358
v 0.835465 4.160738 0.596220
v 0.881352 4.486181 0.610794
v 0.729008 4.424973 0.600655
v 0.974565 4.212292 0.863634
v 0.822222 4.151084 0.853495
v 0.868108 4.476527 0.868069
v 0.715765 4.415320 0.857930
v 1.010752 4.384666 0.613646
v 0.706065 4.262252 0.593368
v 0.990055 4.376141 0.924104
v 0.685367 4.253727 0.903826
v -0.499881 4.159282 0.593747
v -0.663134 4.172670 0.608820
v -0.475053 4.442580 0.611032
v -0.638305 4.455968 0.626105
v -0.477665 4.141702 0.849983
v -0.640917 4.155090 0.865055
v -0.452837 4.425000 0.867267
v -0.616089 4.438388 0.882340
v -0.405841 4.294237 0.594853
v -0.732345 4.321013 0.624999
v -0.381797 4.277908 0.904758
v -0.708301 4.304684 0.934903
v -4.450829 2.682188 0.688580
v -6.243299 2.682188 0.688580
v -10.799162 0.557030 0.878563
v -10.799162 0.557030 0.878563
v -10.406872 0.463756 0.878563
v -10.406872 0.463756 0.878563
v -10.008807 0.724419 0.688580
v -9.069235 0.619566 0.688580
v -1.184668 3.439776 0.344290
v -1.184668 3.335688 -0.000000
v -1.000675 5.904896 0.257814
v -1.000675 5.685059 0.602104
v -1.000675 5.685059 0.602104
v -1.105312 4.618663 0.826326
v -1.200553 3.675602 0.826326
v -1.200553 3.675602 0.826326
v -1.200553 3.675602 0.826326
v -2.817749 3.359916 0.688580
v -1.184668 3.825121 0.688580
v -1.184668 3.825121 0.688580
v -1.184668 3.825121 0.688580
v 6.503504 3.452132 0.413163
v 6.442264 3.328517 0.000000
v 6.632746 5.836408 0.413163
v 6.632746 5.456656 0.826327
v 6.632746 5.456656 0.826327
v 6.733474 4.525301 0.826327
v 6.564744 3.857005 0.826327
v 6.564744 3.857005 0.826327
v 3.976312 3.867378 0.826326
v 1.537535 5.625796 0.826326
v -1.011189 5.812665 0.809896
v -1.011189 5.812665 0.809896
v -10.483629 2.468762 0.878563
v -1.089427 4.676571 0.688580
v -10.995262 0.249804 0.493089
v -11.122476 0.023787 -0.000000
v -1.200553 3.255169 0.413163
v -1.200553 3.115993 -0.000000
v -1.011189 6.096364 0.396733
v 6.176350 4.890121 0.786068
v 6.117970 4.489430 1.033232
v 6.117970 4.489430 1.033232
v 1.650639 4.597308 1.033232
v 1.650639 4.597308 1.033232
v 1.709019 4.997998 0.786068
v 6.078172 3.610578 1.056096
v 6.022609 3.191825 0.684321
v 6.010734 2.931684 0.000000
v 1.652721 3.646537 1.056096
v 1.629211 3.211272 0.684321
v 1.655086 2.931684 0.000000
v 1.387880 3.665229 0.826326
v 2.716104 3.872429 0.826326
v 4.102142 5.320642 0.826326
v 2.921317 5.479498 0.826326
v -9.371099 4.553739 0.688580
v -9.400103 4.704149 0.344290
v -10.533239 5.206208 0.378652
v -10.595090 5.265965 -0.000000
v -9.541615 2.780966 0.878563
v -10.412457 4.981971 0.797981
v 8.414527 4.588476 0.834841
v 8.363455 3.726048 0.934081
v 8.363455 3.726048 0.934081
v 9.117433 3.747816 0.930831
v 9.117433 3.747816 0.930831
v 9.168886 4.588476 0.834841
v 9.168886 4.446723 0.478678
v 9.103045 3.834222 0.484055
v 8.414527 4.446723 0.478678
v 8.360917 5.374822 0.581403
v 8.360917 5.751365 0.000000
v 8.360917 5.751365 0.000000
v 9.115276 5.751365 0.000000
v 9.115276 5.751365 0.000000
v 9.115276 5.374822 0.581403
v 9.115276 6.149522 0.000000
v 9.115276 5.658326 0.870257
v 8.360917 5.658326 0.870257
v 8.360917 6.149522 0.000000
v 8.349068 3.812454 0.487305
v 8.360917 3.165061 0.000000
v 9.115276 3.165061 0.000000
v 9.115276 3.525474 0.000000
v 8.360917 3.525474 0.000000
v 11.266006 4.598121 0.836148
v 11.224645 3.713849 0.934081
v 11.224645 3.713849 0.934081
v 11.978928 3.704412 0.930831
v 11.978928 3.704412 0.930831
v 12.019596 4.566921 0.836148
v 12.012601 4.425314 0.479984
v 11.968819 3.791325 0.484055
v 11.259012 4.456512 0.479984
v 11.313202 5.352334 0.581403
v 12.060660 5.740241 0.000001
v 12.060660 5.740241 0.000001
v 11.306403 5.728827 0.000000
v 11.306403 5.728827 0.000000
v 12.067457 5.363749 0.581404
v 12.053473 6.138343 0.000001
v 12.062340 5.647215 0.870257
v 11.308083 5.635800 0.870257
v 11.299215 6.126929 0.000000
v 11.214537 3.800762 0.487305
v 11.144254 3.162719 0.000000
v 11.897843 3.131520 0.000001
v 11.965802 3.482386 0.000001
v 11.212213 3.513585 0.000000
v 1.260107 6.234065 0.301364
v 1.260107 6.234065 0.301364
v 1.260107 6.259127 0.464014
v 1.260107 6.259127 0.464014
v 1.260107 5.839388 0.560392
v 0.052086 6.259127 0.464014
v 0.052086 6.259127 0.464014
v 0.052086 5.839388 0.560392
v 0.052086 6.208555 0.135808
v 0.052086 6.208555 0.135808
v 0.052086 6.154353 0.000000
v 1.260107 6.154353 0.000000
v 1.260107 6.211888 0.157439
v 1.260107 6.211888 0.157439
v 0.052086 6.234043 0.301226
v 0.052086 6.234043 0.301226
v 0.052086 6.402205 0.121404
v 1.260107 6.405538 0.143035
v 1.260107 6.427715 0.286959
v 0.052086 6.427694 0.286821
v 1.260107 6.709902 0.199984
v 0.052086 6.709798 0.199891
v 0.052086 6.584657 0.088749
v 1.260107 6.601021 0.103283
v 0.052086 6.792483 0.000000
v 0.052086 6.792483 0.000000
v 0.052086 6.792483 0.000000
v 0.052086 6.792483 0.000000
v 0.052086 6.667342 0.000000
v 0.052086 6.667342 0.000000
v 0.052086 6.667342 0.000000
v 0.052086 6.667342 0.000000
v 1.260107 6.683706 0.000000
v 1.260107 6.683706 0.000000
v 1.260107 6.683706 0.000000
v 1.260107 6.683706 0.000000
v 1.260107 6.792587 0.000000
v 1.260107 6.792587 0.000000
v 1.260107 6.792587 0.000000
v 1.260107 6.792587 0.000000
v -0.994186 5.974072 -0.000000
v 6.632746 5.908809 0.000000
v -1.011189 6.168766 -0.000000
v -9.429106 4.752796 -0.000000
v -4.450829 2.682188 -0.688580
v -6.243299 2.682188 -0.688580
v -10.799162 0.557030 -0.878563
v -10.799162 0.557030 -0.878563
v -10.406872 0.463756 -0.878563
v -10.406872 0.463756 -0.878563
v -10.008807 0.724419 -0.688580
v -9.069235 0.619566 -0.688580
v -1.184668 3.439776 -0.344290
v -1.000675 5.904896 -0.257814
v -1.000675 5.685059 -0.602104
v -1.000675 5.685059 -0.602104
v -1.105312 4.618663 -0.826326
v -1.200553 3.675602 -0.826326
v -1.200553 3.675602 -0.826326
v -1.200553 3.675602 -0.826326
v -2.817749 3.359916 -0.688580
v -1.184668 3.825121 -0.688580
v -1.184668 3.825121 -0.688580
v -1.184668 3.825121 -0.688580
v 6.503504 3.452132 -0.413163
v 6.632746 5.836408 -0.413163
v 6.632746 5.456656 -0.826326
v 6.632746 5.456656 -0.826326
v 6.733474 4.525301 -0.826326
v 6.564744 3.857005 -0.826326
v 6.564744 3.857005 -0.826326
v 3.976312 3.867378 -0.826326
v 1.537535 5.625796 -0.826326
v -1.011189 5.812665 -0.809896
v -1.011189 5.812665 -0.809896
v -10.483629 2.468762 -0.878563
v -1.089427 4.676571 -0.688580
v -10.995262 0.249804 -0.493090
v -1.200553 3.255169 -0.413163
v -1.011189 6.096364 -0.396733
v 6.176350 4.890121 -0.786067
v 6.117970 4.489430 -1.033232
v 6.117970 4.489430 -1.033232
v 1.650639 4.597308 -1.033232
v 1.650639 4.597308 -1.033232
v 1.709019 4.997998 -0.786068
v 6.078172 3.610578 -1.056096
v 6.022609 3.191825 -0.684320
v 1.652721 3.646537 -1.056096
v 1.629211 3.211272 -0.684320
v 1.387880 3.665229 -0.826326
v 2.716104 3.872429 -0.826326
v 4.102142 5.320642 -0.826326
v 2.921317 5.479498 -0.826326
v -9.371099 4.553739 -0.688580
v -9.400103 4.704149 -0.344290
v -10.533239 5.206208 -0.378653
v -9.541615 2.780966 -0.878563
v -10.412457 4.981971 -0.797982
v 8.414527 4.588476 -0.834840
v 8.363455 3.726048 -0.934080
v 8.363455 3.726048 -0.934080
v 9.117433 3.747816 -0.930830
v 9.117433 3.747816 -0.930830
v 9.168886 4.588476 -0.834840
v 9.168886 4.446723 -0.478677
v 9.103045 3.834222 -0.484054
v 8.414527 4.446723 -0.478677
v 8.360917 5.374822 -0.581403
v 9.115276 5.374822 -0.581403
v 9.115276 5.658326 -0.870256
v 8.360917 5.658326 -0.870256
v 8.349068 3.812454 -0.487304
v 11.266006 4.598121 -0.836147
v 11.224645 3.713849 -0.934080
v 11.224645 3.713849 -0.934080
v 11.978928 3.704412 -0.930830
v 11.978928 3.704412 -0.930830
v 12.019596 4.566921 -0.836147
v 12.012601 4.425314 -0.479983
v 11.968819 3.791325 -0.484054
v 11.259012 4.456512 -0.479983
v 11.313202 5.352334 -0.581403
v 12.067457 5.363749 -0.581402
v 12.062340 5.647215 -0.870256
v 11.308083 5.635800 -0.870256
v 11.214537 3.800762 -0.487304
v 1.260107 6.234065 -0.301364
v 1.260107 6.234065 -0.301364
v 1.260107 6.259127 -0.464014
v 1.260107 6.259127 -0.464014
v 1.260107 5.839388 -0.560392
v 0.052086 6.259127 -0.464014
v 0.052086 6.259127 -0.464014
v 0.052086 5.839388 -0.560392
v 0.052086 6.208555 -0.135808
v 0.052086 6.208555 -0.135808
v 1.260107 6.211888 -0.157439
v 1.260107 6.211888 -0.157439
v 0.052086 6.234043 -0.301226
v 0.052086 6.234043 -0.301226
v 0.052086 6.402205 -0.121404
v 1.260107 6.405538 -0.143035
v 1.260107 6.427715 -0.286959
v 0.052086 6.427694 -0.286821
v 1.260107 6.709902 -0.199984
v 0.052086 6.709798 -0.199891
v 0.052086 6.584657 -0.088749
v 1.260107 6.601021 -0.103283
v -1.821701 2.893080 -0.190748
v -1.854010 3.606899 -0.190748
v -1.339228 3.650653 -0.190748
v -1.431260 2.710112 -0.190748
v -1.339228 3.650653 0.190748
v -1.431260 2.710112 0.190748
v -1.854010 3.606899 0.190748
v -1.821701 2.893080 0.190748
v -1.919848 2.077169 0.190748
v -1.919848 2.077169 -0.190748
v -2.043685 2.389379 -0.190748
v -2.043685 2.389379 0.190748
v -2.637397 2.139759 -0.190748
v -2.637397 2.139759 0.190748
v -2.598990 1.764557 0.190748
v -2.598990 1.764557 -0.190748
v -3.477831 1.464001 0.190748
v -3.477831 1.464001 0.190748
v -3.477831 1.464001 -0.190748
v -3.477831 1.464001 -0.190748
v -3.232024 1.894093 -0.190748
v -3.232024 1.894093 -0.190748
v -3.232024 1.894093 0.190748
v -3.232024 1.894093 0.190748
v -3.748358 2.326479 -0.190748
v -3.405758 2.497550 -0.190748
v -3.405758 2.497550 0.190748
v -3.748358 2.326479 0.190748
v -4.095019 2.968949 -0.190748
v -4.095019 2.968949 0.190748
v -4.525854 2.792518 0.190748
v -4.525854 2.792518 -0.190748
v -3.016374 2.968405 0.082289
v -2.948502 2.742102 0.082289
v -2.745048 2.985250 0.082289
v -2.677176 2.758947 0.082289
v -2.745048 2.985250 -0.082289
v -2.677176 2.758947 -0.082289
v -2.948502 2.742102 -0.082289
v -3.016374 2.968405 -0.082289
v -2.578356 2.601329 -0.072325
v -2.652860 2.516175 -0.072325
v -2.578356 2.601329 0.072325
v -2.652860 2.516175 0.072325
v -2.400380 2.412350 -0.046703
v -2.400380 2.412350 -0.046703
v -2.400380 2.412350 0.046702
v -2.400380 2.412350 0.046702
v -2.352270 2.467337 0.046702
v -2.352270 2.467337 0.046702
v -2.352270 2.467337 -0.046703
v -2.352270 2.467337 -0.046703
v -1.476734 5.007338 0.114305
v -1.679602 5.265307 0.114305
v -2.098152 4.716599 0.114305
v -2.021728 5.105485 0.114305
v -2.098152 4.716599 -0.114305
v -2.021728 5.105485 -0.114305
v -1.679602 5.265307 -0.114305
v -1.476734 5.007338 -0.114305
v -2.229651 5.258931 -0.100465
v -2.176679 5.406904 -0.100465
v -2.229651 5.258931 0.100464
v -2.176679 5.406904 0.100464
v -2.471036 5.395336 0.064873
v -2.594653 5.334786 0.064873
v -2.594653 5.334786 0.064873
v -2.594653 5.334786 -0.064873
v -2.594653 5.334786 -0.064873
v -2.471036 5.395336 -0.064873
v 13.809306 4.347812 -0.386594
v 13.809306 4.507944 0.000001
v 15.118917 4.643025 0.497012
v 15.118917 4.437157 0.000001
v 13.809306 3.961217 0.546728
v 13.809305 3.574623 0.386595
v 15.118918 5.140037 0.702881
v 15.118918 5.637048 0.497012
v 13.809306 4.347812 0.386595
v 15.118918 5.842916 0.000001
v 15.118918 5.637048 -0.497011
v 13.809305 3.414490 0.000001
v 15.118918 5.140037 -0.702879
v 15.118917 4.643025 -0.497011
v 13.809306 3.961217 -0.546727
v 13.809305 3.574623 -0.386594
v 15.054212 4.266435 -0.305218
v 15.054212 4.392860 0.000001
v 15.054212 3.961217 0.431645
v 15.054211 3.655998 0.305219
v 15.054212 4.266435 0.305219
v 15.054211 3.529573 0.000001
v 15.054212 3.961217 -0.431643
v 15.054211 3.655998 -0.305218
v 12.200385 4.149777 -0.188560
v 12.200385 4.227881 0.000000
v 12.200385 3.961217 0.266665
v 12.200385 3.772657 0.188561
v 12.200385 4.149777 0.188561
v 12.200385 3.694552 0.000000
v 12.200385 3.961217 -0.266664
v 12.200385 3.772657 -0.188560
v 16.014351 4.768778 0.371259
v 16.014351 4.614998 0.000001
v 16.014353 5.140037 0.525039
v 16.014353 5.511294 0.371259
v 16.014353 5.665074 0.000001
v 16.014353 5.511294 -0.371258
v 16.014353 5.140037 -0.525038
v 16.014351 4.768778 -0.371258
v 15.118917 4.548638 0.591399
v 15.118917 4.303673 0.000001
v 15.118918 5.140037 0.836365
v 15.118918 5.731435 0.591399
v 15.118918 5.976400 0.000001
v 15.118918 5.731435 -0.591398
v 15.118918 5.140037 -0.836363
v 15.118917 4.548638 -0.591398
v 15.931852 4.548637 0.591399
v 15.931852 4.303672 0.000001
v 15.931856 5.140037 0.836365
v 15.931856 5.731435 0.591399
v 15.931856 5.976400 0.000001
v 15.931856 5.731435 -0.591398
v 15.931856 5.140037 -0.836363
v 15.931852 4.548637 -0.591398
v 13.809306 4.436872 -0.475654
v 13.809306 4.633894 0.000001
v 13.809306 3.961217 0.672678
v 13.809305 3.485563 0.475655
v 13.809306 4.436872 0.475655
v 13.809305 3.288540 0.000001
v 13.809306 3.961217 -0.672677
v 13.809305 3.485563 -0.475654
v 14.922464 4.639551 -0.678334
v 14.922464 4.692604 0.000001
v 14.922464 3.961217 0.959311
v 14.922462 3.282882 0.678335
v 14.922464 4.639551 0.678335
v 14.922462 3.001906 0.000001
v 14.922464 3.961217 -0.959310
v 14.922462 3.282882 -0.678334
v 14.449944 4.951046 0.188993
v 14.449944 4.872763 0.000001
v 14.449944 5.140038 0.267276
v 14.449944 5.329030 0.188993
v 14.449944 5.407313 0.000001
v 14.449944 5.329030 -0.188992
v 14.449944 5.140038 -0.267275
v 14.449944 4.951046 -0.188992
v 15.775310 5.857261 -0.095275
v 15.775310 5.857261 -0.095275
v 15.323235 5.857261 -0.095275
v 15.323235 5.857261 -0.095275
v 15.373279 6.066643 -0.068738
v 15.614599 6.066643 -0.068738
v 15.775310 5.857261 0.095276
v 15.775310 5.857261 0.095276
v 15.614599 6.066643 0.068739
v 15.323235 5.857261 0.095276
v 15.323235 5.857261 0.095276
v 15.373279 6.066643 0.068739
v 15.658075 6.242318 0.059165
v 15.456277 6.235606 0.059165
v 15.456277 6.235606 -0.059163
v 15.658075 6.242318 -0.059163
v 15.474312 6.435636 -0.008620
v 15.474312 6.435636 -0.008620
v 15.581545 6.435636 -0.008620
v 15.581545 6.435636 -0.008620
v 15.581545 6.435636 0.008621
v 15.581545 6.435636 0.008621
v 15.474312 6.435636 0.008621
v 15.474312 6.435636 0.008621
v -0.373290 5.030508 0.880844
v -0.521572 4.959856 0.871984
v -0.655757 5.052642 0.910367
v -0.359193 5.193946 0.928088
v -0.494419 5.287463 0.859049
v -0.642701 5.216811 0.850189
v 0.996514 4.950512 0.875668
v 0.832113 4.952209 0.870474
v 0.753239 5.094617 0.910309
v 1.082042 5.091227 0.920695
v 1.000155 5.234507 0.853145
v 0.835753 5.236202 0.847952
v 0.715765 4.415320 0.857930
v 0.868108 4.476527 0.868069
v 0.990055 4.376141 0.924104
v 0.685367 4.253727 0.903826
v 0.822222 4.151084 0.853495
v 0.974565 4.212292 0.863634
v -0.616089 4.438388 0.882340
v -0.452837 4.425000 0.867267
v -0.381797 4.277908 0.904758
v -0.708301 4.304684 0.934903
v -0.640917 4.155090 0.865055
v -0.477665 4.141702 0.849983
vn -0.0000 -0.0000 1.0000
vn 0.3790 -0.1356 0.9154
vn 0.2696 -0.0390 0.9622
vn 0.5725 -0.0892 0.8150
vn 0.5654 -0.2023 0.7996
vn 0.2762 -0.7982 0.5353
vn 0.3258 -0.9454 -0.0000
vn 0.1889 -0.9820 -0.0000
vn 0.1659 -0.8396 0.5172
vn 0.0259 0.9515 0.3064
vn 0.0176 0.5823 0.8128
vn 0.0087 0.4681 0.8836
vn 0.0191 0.9469 0.3210
vn -0.5113 0.8075 0.2943
vn -0.2155 0.4395 0.8720
vn -0.7152 0.6092 0.3426
vn -0.7577 0.6183 0.2089
vn 0.2624 -0.8286 0.4945
vn 0.2314 -0.6906 0.6852
vn 0.2399 -0.7413 0.6268
vn 0.1944 -0.8364 0.5125
vn 0.0002 0.0028 1.0000
vn 0.0029 0.0332 0.9994
vn 0.2823 -0.8044 0.5227
vn 0.3326 -0.9431 -0.0000
vn 0.2740 -0.9617 -0.0000
vn 0.2297 -0.8062 0.5452
vn 0.9991 -0.0411 0.0132
vn 0.9964 0.0827 0.0157
vn 0.9941 0.0936 0.0547
vn 0.9962 -0.0832 0.0262
vn -0.0016 -0.8573 0.5148
vn -0.0010 -1.0000 -0.0000
vn -0.0017 -0.8489 0.5286
vn 0.0362 0.8928 0.4490
vn 0.0283 0.7360 0.6764
vn -0.0395 0.7357 0.6762
vn -0.0482 0.8976 0.4382
vn 0.9769 -0.2135 -0.0081
vn 0.9774 -0.2112 0.0046
vn 0.0044 0.0506 0.9987
vn -0.9927 0.0781 -0.0916
vn -0.9938 0.1055 -0.0352
vn -0.9978 -0.0627 -0.0234
vn 0.9981 -0.0308 -0.0535
vn 0.9972 -0.0390 -0.0636
vn 0.9971 -0.0708 -0.0261
vn 0.9958 -0.0712 -0.0567
vn -0.9992 -0.0050 -0.0398
vn 0.9971 -0.0700 0.0310
vn -0.9959 0.0241 -0.0868
vn 0.0126 0.5236 0.8519
vn -0.0032 -0.8167 0.5770
vn -0.0022 -1.0000 -0.0000
vn -0.0032 -0.8118 0.5839
vn 0.0004 0.0250 0.9997
vn -0.0020 -0.3415 0.9399
vn -0.0019 -0.3233 0.9463
vn 0.0263 0.9997 -0.0000
vn -0.0977 0.9952 -0.0000
vn -0.0934 0.9499 0.2983
vn -0.0484 0.5098 0.8589
vn 0.1875 -0.6576 0.7296
vn 0.2262 -0.6483 0.7270
vn 0.2306 -0.8313 0.5058
vn 0.0376 0.9110 0.4107
vn 0.0384 0.7792 0.6256
vn 0.0588 0.7563 0.6516
vn 0.0658 0.9028 0.4250
vn 0.1069 0.8919 0.4394
vn 0.0886 0.7334 0.6740
vn -0.0016 -0.8497 0.5272
vn 0.0757 -0.9971 -0.0000
vn 0.0674 -0.8545 0.5150
vn 0.0664 -0.8510 0.5209
vn 0.0840 -0.9965 -0.0000
vn -0.0007 0.0019 1.0000
vn -0.0015 0.0039 1.0000
vn 0.0040 1.0000 -0.0000
vn 0.0058 0.9606 0.2780
vn 0.5557 0.1808 0.8115
vn -0.1645 -0.7342 0.6587
vn -0.1900 -0.8093 0.5558
vn -0.0021 0.0239 0.9997
vn 0.4459 0.4909 0.7484
vn 0.1015 0.6016 0.7923
vn -0.0012 0.0132 0.9999
vn 0.5462 0.8044 0.2336
vn 0.5369 0.8436 -0.0000
vn 0.1473 0.9891 -0.0000
vn 0.1513 0.9473 0.2823
vn -0.9760 0.0891 0.1985
vn -0.9946 0.1034 -0.0000
vn -0.9834 0.1815 -0.0000
vn -0.9673 0.1759 0.1827
vn 0.8542 0.5034 0.1299
vn 0.8777 0.4792 -0.0000
vn -0.9843 0.0207 0.1754
vn -0.9999 0.0161 -0.0000
vn 0.9997 0.0209 -0.0138
vn 0.9992 0.0325 -0.0214
vn 1.0000 -0.0000 -0.0000
vn 0.0134 -0.8524 0.5227
vn 0.0158 -0.9999 -0.0000
vn -0.9996 -0.0026 0.0273
vn -0.9997 -0.0209 0.0138
vn -0.9992 -0.0325 0.0214
vn -0.9993 0.0303 0.0213
vn 0.0002 0.0402 0.9992
vn -0.0000 0.4816 0.8764
vn -0.0000 0.4984 0.8670
vn 0.0002 0.0407 0.9992
vn 0.9993 -0.0321 -0.0212
vn 0.9996 0.0015 -0.0272
vn -0.0010 0.0488 -0.9988
vn -0.0000 -0.4389 -0.8985
vn -0.0000 -0.4186 -0.9082
vn -0.0010 0.0506 -0.9987
vn -0.0091 0.5035 -0.8640
vn -0.0086 0.4643 -0.8857
vn -1.0000 -0.0000 -0.0000
vn -0.0000 -0.8393 -0.5436
vn -0.0000 1.0000 -0.0000
vn 0.9997 -0.0208 -0.0099
vn 0.9991 -0.0422 -0.0107
vn 0.0005 0.1139 0.9935
vn -0.9991 0.0409 0.0108
vn -0.9998 0.0192 0.0099
vn -0.0158 0.9999 -0.0000
vn 0.9997 0.0241 -0.0000
vn -0.9997 -0.0243 -0.0000
vn 0.9999 -0.0074 0.0113
vn 0.9996 -0.0215 0.0175
vn 0.9998 0.0180 -0.0000
vn -0.0219 -0.8554 0.5175
vn -0.0256 -0.9997 -0.0000
vn -0.9985 0.0539 -0.0120
vn -0.9999 0.0080 -0.0116
vn -0.9996 0.0224 -0.0181
vn -0.9985 0.0551 -0.0000
vn 0.0023 0.0386 0.9993
vn -0.0081 0.4993 0.8664
vn -0.0078 0.4812 0.8766
vn 0.0023 0.0388 0.9992
vn 0.9985 -0.0549 -0.0003
vn 0.9985 -0.0532 0.0114
vn -0.0005 0.0498 -0.9988
vn 0.0082 -0.4158 -0.9094
vn 0.0085 -0.4415 -0.8972
vn -0.0004 0.0515 -0.9987
vn 0.0114 0.4923 -0.8703
vn 0.0109 0.4765 -0.8791
vn -0.9998 -0.0181 -0.0000
vn 0.0127 -0.8392 -0.5436
vn -0.0151 0.9999 -0.0000
vn 0.9958 -0.0917 0.0006
vn 0.9968 -0.0795 -0.0058
vn 0.0051 0.1094 0.9940
vn -0.9968 0.0794 0.0066
vn -0.9957 0.0926 0.0003
vn 0.0256 0.9997 -0.0000
vn 0.9931 -0.1170 -0.0000
vn -0.9929 0.1187 -0.0000
vn -0.0000 0.2238 0.9746
vn -0.0000 0.9883 -0.1523
vn -0.0001 0.1855 0.9826
vn -0.0001 0.6734 0.7393
vn 0.0019 0.9345 -0.3561
vn 0.0181 -0.0742 -0.9971
vn 0.0172 -0.1314 -0.9912
vn -0.0001 0.0742 0.9972
vn 0.0161 -0.4997 -0.8661
vn 0.0161 -0.5017 -0.8649
vn -0.0001 0.9241 0.3822
vn 0.0142 -0.7577 -0.6525
vn -0.9678 0.0281 0.2500
vn -0.9539 0.1118 0.2784
vn -0.9408 0.1656 0.2956
vn 0.1221 -0.9925 -0.0000
vn -0.2352 -0.9719 -0.0000
vn 0.2298 -0.9732 -0.0000
vn 0.2985 -0.9544 -0.0000
vn 0.0078 0.9117 0.4108
vn 0.0699 0.9976 -0.0000
vn 0.1191 0.9929 -0.0000
vn 0.0577 -0.7055 0.7063
vn 0.0507 -0.7083 0.7041
vn -0.0021 -0.7103 0.7039
vn -0.0021 -0.7031 0.7111
vn 0.0404 0.9992 -0.0000
vn 0.0350 0.9994 -0.0000
vn 0.0203 0.9998 -0.0000
vn -0.5476 0.8367 -0.0000
vn 0.1458 -0.6591 0.7377
vn 0.2202 -0.6499 0.7274
vn -0.9989 -0.0382 -0.0254
vn 0.9767 -0.2145 -0.0000
vn 0.9958 -0.0919 -0.0000
vn -0.0537 0.9986 -0.0000
vn -0.0021 -0.7119 0.7023
vn 0.9970 0.0775 -0.0000
vn 0.1865 -0.6546 0.7326
vn -0.7820 0.6233 -0.0000
vn -0.0029 0.0075 1.0000
vn -0.0014 0.0036 1.0000
vn -0.9965 0.0572 -0.0608
vn -0.9970 0.0743 -0.0239
vn -0.9986 0.0318 0.0422
vn 1.0000 -0.0033 -0.0000
vn -0.0000 -0.0000 -1.0000
vn 0.3790 -0.1356 -0.9154
vn 0.5654 -0.2023 -0.7996
vn 0.5725 -0.0892 -0.8150
vn 0.2696 -0.0390 -0.9622
vn 0.2762 -0.7982 -0.5353
vn 0.1659 -0.8396 -0.5172
vn 0.0259 0.9515 -0.3064
vn 0.0191 0.9469 -0.3210
vn 0.0087 0.4681 -0.8836
vn 0.0176 0.5823 -0.8128
vn -0.5113 0.8075 -0.2943
vn -0.7577 0.6183 -0.2089
vn -0.7152 0.6092 -0.3426
vn -0.2155 0.4395 -0.8720
vn 0.2624 -0.8286 -0.4945
vn 0.1944 -0.8364 -0.5125
vn 0.2399 -0.7413 -0.6268
vn 0.2314 -0.6906 -0.6852
vn 0.0002 0.0028 -1.0000
vn 0.0029 0.0332 -0.9994
vn 0.2823 -0.8044 -0.5227
vn 0.2297 -0.8062 -0.5452
vn 0.9991 -0.0411 -0.0132
vn 0.9962 -0.0832 -0.0262
vn 0.9941 0.0936 -0.0547
vn 0.9964 0.0827 -0.0157
vn -0.0016 -0.8573 -0.5148
vn -0.0017 -0.8489 -0.5286
vn 0.0362 0.8928 -0.4490
vn -0.0482 0.8976 -0.4382
vn -0.0395 0.7357 -0.6762
vn 0.0283 0.7360 -0.6764
vn 0.9769 -0.2135 0.0081
vn 0.9774 -0.2112 -0.0046
vn 0.0044 0.0506 -0.9987
vn -0.9927 0.0781 0.0916
vn -0.9938 0.1055 0.0352
vn -0.9978 -0.0627 0.0234
vn 0.9981 -0.0308 0.0535
vn 0.9958 -0.0712 0.0567
vn 0.9971 -0.0708 0.0261
vn 0.9972 -0.0390 0.0636
vn -0.9992 -0.0050 0.0398
vn 0.9971 -0.0700 -0.0310
vn -0.9959 0.0241 0.0868
vn 0.0126 0.5236 -0.8519
vn -0.0032 -0.8167 -0.5770
vn -0.0032 -0.8118 -0.5839
vn 0.0004 0.0250 -0.9997
vn -0.0019 -0.3233 -0.9463
vn -0.0020 -0.3415 -0.9399
vn -0.0934 0.9499 -0.2983
vn -0.0484 0.5098 -0.8589
vn 0.2306 -0.8313 -0.5058
vn 0.2262 -0.6483 -0.7270
vn 0.1875 -0.6576 -0.7296
vn 0.0376 0.9110 -0.4107
vn 0.0658 0.9028 -0.4250
vn 0.0588 0.7563 -0.6516
vn 0.0384 0.7792 -0.6256
vn 0.1069 0.8919 -0.4394
vn 0.0886 0.7334 -0.6740
vn -0.0016 -0.8497 -0.5272
vn 0.0674 -0.8545 -0.5150
vn 0.0664 -0.8510 -0.5209
vn -0.0007 0.0019 -1.0000
vn -0.0015 0.0039 -1.0000
vn 0.0058 0.9606 -0.2780
vn 0.5557 0.1808 -0.8115
vn -0.1900 -0.8093 -0.5558
vn -0.1645 -0.7342 -0.6587
vn -0.0021 0.0239 -0.9997
vn -0.0012 0.0132 -0.9999
vn 0.1015 0.6016 -0.7923
vn 0.4459 0.4909 -0.7484
vn 0.5462 0.8044 -0.2336
vn 0.1513 0.9473 -0.2823
vn -0.9760 0.0891 -0.1985
vn -0.9673 0.1759 -0.1827
vn 0.8542 0.5034 -0.1299
vn -0.9843 0.0207 -0.1754
vn 0.9997 0.0209 0.0138
vn 0.9992 0.0325 0.0214
vn 0.0134 -0.8524 -0.5227
vn -0.9996 -0.0026 -0.0273
vn -0.9993 0.0303 -0.0213
vn -0.9992 -0.0325 -0.0214
vn -0.9997 -0.0209 -0.0138
vn 0.0002 0.0402 -0.9992
vn 0.0002 0.0407 -0.9992
vn -0.0000 0.4984 -0.8670
vn -0.0000 0.4816 -0.8764
vn 0.9993 -0.0321 0.0212
vn 0.9996 0.0015 0.0272
vn -0.0010 0.0488 0.9988
vn -0.0010 0.0506 0.9987
vn -0.0000 -0.4186 0.9082
vn -0.0000 -0.4389 0.8985
vn -0.0091 0.5035 0.8640
vn -0.0086 0.4643 0.8857
vn -0.0000 -0.8393 0.5436
vn 0.9997 -0.0208 0.0099
vn 0.9991 -0.0422 0.0107
vn 0.0005 0.1139 -0.9935
vn -0.9991 0.0409 -0.0108
vn -0.9998 0.0192 -0.0099
vn 0.9999 -0.0074 -0.0113
vn 0.9996 -0.0215 -0.0175
vn -0.0219 -0.8554 -0.5175
vn -0.9985 0.0539 0.0120
vn -0.9996 0.0224 0.0181
vn -0.9999 0.0080 0.0116
vn 0.0023 0.0386 -0.9993
vn 0.0023 0.0388 -0.9992
vn -0.0078 0.4812 -0.8766
vn -0.0081 0.4993 -0.8664
vn 0.9985 -0.0549 0.0003
vn 0.9985 -0.0532 -0.0114
vn -0.0005 0.0498 0.9988
vn -0.0004 0.0515 0.9987
vn 0.0085 -0.4415 0.8972
vn 0.0082 -0.4158 0.9094
vn 0.0114 0.4923 0.8703
vn 0.0109 0.4765 0.8791
vn 0.0127 -0.8392 0.5436
vn 0.9958 -0.0917 -0.0006
vn 0.9968 -0.0795 0.0058
vn 0.0051 0.1094 -0.9940
vn -0.9968 0.0794 -0.0066
vn -0.9957 0.0926 -0.0003
vn -0.0000 0.2238 -0.9746
vn -0.0000 0.9883 0.1523
vn -0.0001 0.1855 -0.9826
vn -0.0001 0.6734 -0.7393
vn 0.0019 0.9345 0.3561
vn 0.0181 -0.0742 0.9971
vn 0.0172 -0.1314 0.9912
vn -0.0001 0.0742 -0.9972
vn 0.0161 -0.5017 0.8649
vn 0.0161 -0.4997 0.8661
vn -0.0001 0.9241 -0.3822
vn 0.0142 -0.7577 0.6525
vn -0.9678 0.0281 -0.2500
vn -0.9539 0.1118 -0.2784
vn -0.9408 0.1656 -0.2956
vn 0.0078 0.9117 -0.4108
vn 0.0577 -0.7055 -0.7063
vn 0.0507 -0.7083 -0.7041
vn -0.0021 -0.7103 -0.7039
vn -0.0021 -0.7031 -0.7111
vn 0.1458 -0.6591 -0.7377
vn 0.2202 -0.6499 -0.7274
vn -0.9989 -0.0382 0.0254
vn -0.0021 -0.7119 -0.7023
vn 0.1865 -0.6546 -0.7326
vn -0.0014 0.0036 -1.0000
vn -0.0029 0.0075 -1.0000
vn -0.9965 0.0572 0.0608
vn -0.9970 0.0743 0.0239
vn -0.9986 0.0318 -0.0422
vn 0.9296 -0.3686 -0.0000
vn 0.9952 -0.0974 -0.0000
vn -0.9829 0.1839 -0.0000
vn -0.9990 -0.0452 -0.0000
vn 0.6229 -0.7823 -0.0000
vn -0.7010 0.7131 -0.0000
vn -0.3847 0.9230 -0.0000
vn 0.3713 -0.9285 -0.0000
vn -0.3818 0.9242 -0.0000
vn 0.3236 -0.9462 -0.0000
vn 0.8106 0.5856 -0.0000
vn 0.5645 0.8254 -0.0000
vn 0.9610 0.2767 -0.0000
vn -0.9542 -0.2993 -0.0000
vn -0.7854 -0.6189 -0.0000
vn -0.5141 -0.8577 -0.0000
vn 0.0421 -0.0521 0.9978
vn 0.0388 -0.0507 0.9980
vn 0.0743 -0.0650 0.9951
vn 0.0033 -0.0113 -0.9999
vn 0.0071 -0.0242 -0.9997
vn 0.0421 -0.0521 -0.9978
vn 0.0388 -0.0507 -0.9980
vn -0.8242 -0.5663 -0.0000
vn -0.9578 -0.2873 -0.0000
vn 0.0071 -0.0242 0.9997
vn 0.0033 -0.0113 0.9999
vn 0.9117 0.4108 -0.0000
vn 0.9578 0.2873 -0.0000
vn 0.7066 0.7076 -0.0000
vn -0.5025 -0.8646 -0.0000
vn 0.7526 -0.6585 -0.0000
vn 0.5098 0.8603 -0.0000
vn -0.3803 -0.9249 -0.0000
vn 0.0743 -0.0650 -0.9951
vn -0.0607 0.0572 0.9965
vn -0.0565 0.0543 0.9969
vn -0.0989 0.0837 0.9916
vn -0.0073 0.0093 -0.9999
vn -0.0124 0.0159 -0.9998
vn -0.0607 0.0572 -0.9965
vn -0.0565 0.0543 -0.9969
vn -0.0124 0.0159 0.9998
vn -0.0073 0.0093 0.9999
vn -0.9361 -0.3518 -0.0000
vn -0.9812 0.1928 -0.0000
vn -0.4176 -0.9086 -0.0000
vn 0.5595 0.8289 -0.0000
vn 0.1265 0.9920 -0.0000
vn -0.4399 0.8981 -0.0000
vn -0.2373 0.9714 -0.0000
vn -0.2035 -0.9791 -0.0000
vn -0.0989 0.0837 -0.9916
vn 0.7861 0.6182 -0.0000
vn 0.0085 -1.0000 -0.0000
vn -0.0041 -1.0000 -0.0000
vn -0.0029 -0.7076 0.7066
vn 0.0060 -0.7056 0.7086
vn 0.0041 0.7125 -0.7016
vn 0.0067 0.7027 -0.7114
vn -0.0132 -0.0055 -0.9999
vn 0.0076 0.0060 -1.0000
vn -0.0000 -0.0010 1.0000
vn -0.0001 0.0031 1.0000
vn -0.0016 1.0000 0.0050
vn 0.0227 0.9997 -0.0032
vn 0.0029 0.7066 0.7076
vn -0.0060 0.7086 0.7056
vn -0.0064 0.7075 0.7066
vn 0.0253 0.7057 0.7081
vn 0.0041 1.0000 -0.0000
vn -0.0084 1.0000 -0.0000
vn -0.0075 0.0059 1.0000
vn 0.0129 -0.0056 0.9999
vn 0.0029 0.7066 -0.7076
vn -0.0060 0.7086 -0.7056
vn 0.0065 -0.7066 -0.7075
vn -0.0253 -0.7080 -0.7057
vn -0.0227 -0.9997 -0.0032
vn 0.0015 -1.0000 0.0051
vn -0.0043 -0.7016 0.7125
vn -0.0070 -0.7114 0.7027
vn -0.0000 -0.0010 -1.0000
vn -0.0001 0.0031 -1.0000
vn -0.0029 -0.7076 -0.7066
vn 0.0060 -0.7056 -0.7086
vn 0.0577 -0.0000 0.9983
vn 0.0577 -0.7059 0.7059
vn 0.9340 -0.2526 0.2526
vn 0.9340 -0.3572 -0.0000
vn 0.9320 0.3624 -0.0000
vn 0.9229 0.3275 0.2025
vn 0.9340 -0.0000 0.3572
vn 0.9229 0.3275 -0.2025
vn 0.9340 -0.2526 -0.2526
vn 0.9340 -0.0000 -0.3572
vn 0.0577 0.7059 -0.7059
vn 0.0577 0.9983 -0.0000
vn 0.0577 -0.0000 -0.9983
vn 0.0577 0.7059 0.7059
vn 0.0577 -0.7059 -0.7059
vn 0.0577 -0.9983 -0.0000
vn 0.1626 -0.0000 -0.9867
vn 0.1626 0.6977 -0.6977
vn 0.9666 0.1811 -0.1811
vn 0.9666 -0.0000 -0.2561
vn 0.9666 0.2561 -0.0000
vn 0.9666 0.1811 0.1811
vn 0.9666 -0.0000 0.2561
vn -0.0000 0.7071 -0.7071
vn -0.0000 -0.7071 0.7071
vn -0.0000 -1.0000 -0.0000
vn -0.0000 0.7071 0.7071
vn -0.0000 -0.7071 -0.7071
vn 0.9666 -0.1811 -0.1811
vn 0.9666 -0.2561 -0.0000
vn 0.9666 -0.1811 0.1811
vn 0.8278 -0.3967 0.3967
vn 0.8278 -0.5610 -0.0000
vn 0.7550 0.6557 -0.0000
vn 0.8290 0.4417 0.3430
vn 0.8278 -0.0000 0.5610
vn -0.1977 -0.0000 -0.9803
vn -0.1977 0.6932 -0.6932
vn -0.2010 0.7264 -0.6572
vn -0.2797 -0.0000 -0.9601
vn 0.8290 0.4417 -0.3430
vn -0.1977 0.6932 0.6932
vn -0.1977 -0.0000 0.9803
vn -0.2797 -0.0000 0.9601
vn -0.2010 0.7264 0.6572
vn -0.1977 0.9803 -0.0000
vn -0.1151 0.9934 -0.0000
vn 0.8278 -0.3967 -0.3967
vn -0.2092 0.7435 0.6352
vn -0.0348 0.9994 -0.0000
vn -0.2797 -0.9601 -0.0000
vn -0.2797 -0.6789 -0.6789
vn -0.3496 -0.6625 -0.6625
vn -0.3496 -0.9369 -0.0000
vn -0.2092 0.7435 -0.6352
vn -0.2797 -0.6789 0.6789
vn -0.3496 -0.6625 0.6625
vn -0.3496 -0.0000 0.9369
vn -0.3496 -0.0000 -0.9369
vn -0.1977 -0.6932 -0.6932
vn -0.1977 -0.6932 0.6932
vn -0.1977 -0.9803 -0.0000
vn 0.8278 -0.0000 -0.5610
vn 0.1626 0.6977 0.6977
vn 0.1626 -0.0000 0.9867
vn 0.1626 -0.6977 0.6977
vn 0.1626 -0.9867 -0.0000
vn 0.1626 -0.6977 -0.6977
vn 0.1626 0.9867 -0.0000
vn -0.0124 -0.7049 -0.7092
vn 0.0012 -0.7094 -0.7048
vn 0.0017 -1.0000 -0.0000
vn -0.0176 -0.9998 -0.0000
vn 0.0001 0.0043 -1.0000
vn -0.0000 -0.0047 -1.0000
vn 0.0125 0.7092 -0.7049
vn -0.0012 0.7047 -0.7095
vn 0.0176 0.9998 -0.0000
vn -0.0017 1.0000 -0.0000
vn 0.0125 0.7092 0.7049
vn -0.0012 0.7047 0.7095
vn 0.0001 0.0043 1.0000
vn -0.0000 -0.0047 1.0000
vn -0.0124 -0.7049 0.7092
vn 0.0012 -0.7094 0.7048
vn -0.0131 -0.0000 -0.9999
vn 0.0076 -0.0031 -1.0000
vn 0.0144 -0.7061 -0.7080
vn -0.0093 -0.7087 -0.7055
vn -0.0000 -1.0000 0.0032
vn 0.0130 -0.9999 -0.0050
vn 0.0040 -0.7112 0.7030
vn 0.0093 -0.7055 0.7087
vn -0.0075 -0.0032 1.0000
vn 0.0131 -0.0000 0.9999
vn -0.0145 0.7080 0.7061
vn 0.0093 0.7055 0.7087
vn -0.0129 0.9999 -0.0051
vn -0.0000 1.0000 0.0032
vn -0.0037 0.7030 -0.7112
vn -0.0093 0.7087 -0.7055
vn -0.0000 0.1257 -0.9921
vn -0.0003 0.0991 -0.9951
vn -0.0004 0.0944 -0.9955
vn 0.7933 0.6089 -0.0000
vn 0.9739 0.2271 -0.0000
vn -0.0000 0.1257 0.9921
vn -0.0004 0.0944 0.9955
vn -0.0003 0.0991 0.9951
vn -0.9726 0.2325 -0.0000
vn -0.9429 0.3331 -0.0000
vn -0.0031 0.1505 0.9886
vn -0.0027 0.1359 0.9907
vn -0.0031 0.1505 -0.9886
vn -0.0027 0.1359 -0.9907
vn -0.0054 0.2481 -0.9687
vn -0.9577 0.2878 -0.0000
vn 0.9994 0.0356 -0.0000
vn -0.9960 0.0898 -0.0000
vn 0.9298 0.3681 -0.0000
vn -0.0054 0.2481 0.9687
vn 0.4252 -0.9019 0.0765
vn -0.2217 0.3511 0.9097
vn -0.4252 0.9019 -0.0765
vn -0.9950 0.0655 -0.0755
vn 0.5672 0.8236 0.0075
vn 0.9927 -0.0935 0.0765
vn -0.5692 -0.8222 -0.0077
vn 0.0777 -0.2830 0.9560
vn -0.0128 -0.9968 0.0791
vn -0.0245 0.4148 0.9096
vn 0.0128 0.9968 -0.0791
vn -0.8664 0.4960 -0.0572
vn 0.8714 0.4905 -0.0131
vn 0.8521 -0.5201 0.0586
vn -0.8726 -0.4883 0.0129
vn -0.0332 -0.2862 0.9576
vn -0.3737 0.9274 0.0156
vn 0.0792 -0.3517 0.9327
vn 0.3737 -0.9274 -0.0156
vn 0.9902 -0.1280 0.0551
vn -0.6142 -0.7867 -0.0619
vn -0.9863 0.1558 -0.0540
vn 0.6162 0.7852 0.0620
vn -0.1830 0.3003 0.9361
vn 0.0871 0.9943 0.0607
vn 0.0513 -0.4035 0.9136
vn -0.0871 -0.9943 -0.0607
vn 0.8246 -0.5567 -0.1007
vn -0.9026 -0.4277 0.0481
vn -0.8085 0.5798 0.1008
vn 0.9037 0.4255 -0.0484
vn 0.1118 0.2958 0.9487
vt 0.478804 0.147974
vt 0.440461 0.154463
vt 0.443806 0.012590
vt 0.480500 0.004205
vt 0.221258 0.273238
vt 0.173361 0.304953
vt 0.180962 0.209402
vt 0.225339 0.178487
vt 0.069639 0.508865
vt 0.182643 0.476362
vt 0.183238 0.491803
vt 0.059164 0.532039
vt 0.144497 0.302326
vt 0.125187 0.297488
vt 0.136866 0.204241
vt 0.155168 0.207373
vt 0.305861 0.266479
vt 0.286783 0.266995
vt 0.270118 0.161447
vt 0.291033 0.161575
vt 0.306935 0.061805
vt 0.285625 0.058921
vt 0.323478 0.004205
vt 0.343868 0.005896
vt 0.039707 0.506154
vt 0.034530 0.531358
vt 0.254094 0.101231
vt 0.213438 0.121965
vt 0.232591 0.031402
vt 0.276836 0.021357
vt 0.185223 0.120919
vt 0.166194 0.117439
vt 0.186078 0.028700
vt 0.205038 0.031346
vt 0.265205 0.881769
vt 0.265276 0.947632
vt 0.242770 0.927130
vt 0.242718 0.876248
vt 0.408494 0.155473
vt 0.384876 0.156777
vt 0.388550 0.017864
vt 0.412163 0.015136
vt 0.552820 0.151347
vt 0.521403 0.150495
vt 0.531143 0.010675
vt 0.561491 0.011537
vt 0.265203 0.816658
vt 0.242777 0.838840
vt 0.011807 0.890851
vt 0.004302 0.894055
vt 0.005179 0.829017
vt 0.016519 0.835878
vt 0.004205 0.945525
vt 0.011700 0.937374
vt 0.035129 0.823809
vt 0.027506 0.813455
vt 0.049019 0.809363
vt 0.049112 0.819975
vt 0.358497 0.892040
vt 0.376757 0.876821
vt 0.371638 0.858660
vt 0.352647 0.862048
vt 0.302562 0.840469
vt 0.320233 0.856368
vt 0.344237 0.839263
vt 0.327972 0.809363
vt 0.400619 0.809363
vt 0.377878 0.821463
vt 0.321806 0.915691
vt 0.344237 0.928357
vt 0.314965 0.874928
vt 0.296099 0.870901
vt 0.715721 0.694462
vt 0.741346 0.697106
vt 0.741346 0.454452
vt 0.715722 0.451808
vt 0.632992 0.452580
vt 0.592888 0.454807
vt 0.597718 0.691276
vt 0.637477 0.691109
vt 0.664096 0.453167
vt 0.667944 0.693453
vt 0.205104 0.358224
vt 0.073049 0.458791
vt 0.323712 0.265838
vt 0.319247 0.356210
vt 0.300043 0.356489
vt 0.279080 0.356892
vt 0.048587 0.456219
vt 0.526072 0.216382
vt 0.476471 0.218126
vt 0.562831 0.428337
vt 0.535797 0.428091
vt 0.530457 0.291290
vt 0.560469 0.291775
vt 0.556449 0.217049
vt 0.388562 0.432377
vt 0.365260 0.431297
vt 0.371568 0.295133
vt 0.394836 0.295660
vt 0.405324 0.224203
vt 0.381463 0.224169
vt 0.437692 0.224038
vt 0.474953 0.290786
vt 0.425869 0.295859
vt 0.336904 0.482348
vt 0.316269 0.486264
vt 0.292388 0.491584
vt 0.059734 0.552284
vt 0.032878 0.557142
vt 0.301856 0.509321
vt 0.307541 0.554505
vt 0.161411 0.545204
vt 0.325911 0.507905
vt 0.346084 0.504655
vt 0.356850 0.557837
vt 0.335314 0.558262
vt 0.881042 0.498312
vt 0.901681 0.500015
vt 0.903724 0.643270
vt 0.876423 0.630316
vt 0.882822 0.359009
vt 0.903724 0.356093
vt 0.783813 0.149862
vt 0.804019 0.141695
vt 0.813749 0.177611
vt 0.802645 0.192495
vt 0.954851 0.863906
vt 0.995795 0.865047
vt 0.994960 0.924207
vt 0.954003 0.923534
vt 0.863669 0.092308
vt 0.876956 0.147265
vt 0.856005 0.138835
vt 0.849048 0.084529
vt 0.951997 0.817964
vt 0.954832 0.759834
vt 0.995795 0.759780
vt 0.992960 0.817910
vt 0.811711 0.084858
vt 0.794826 0.092691
vt 0.855921 0.050580
vt 0.807577 0.050162
vt 0.857201 0.194848
vt 0.844559 0.178675
vt 0.954761 0.705570
vt 0.995724 0.705516
vt 0.783666 0.054403
vt 0.876956 0.059114
vt 0.818958 0.017826
vt 0.850657 0.021611
vt 0.810061 0.004205
vt 0.861077 0.010820
vt 0.844634 0.500512
vt 0.824559 0.508061
vt 0.815938 0.471617
vt 0.827621 0.457238
vt 0.915070 0.269675
vt 0.956020 0.270707
vt 0.958321 0.329716
vt 0.917369 0.329145
vt 0.763506 0.557725
vt 0.749756 0.500518
vt 0.771733 0.509475
vt 0.779723 0.565192
vt 0.914614 0.222508
vt 0.914489 0.163772
vt 0.955395 0.165922
vt 0.955570 0.222346
vt 0.815716 0.563490
vt 0.832441 0.555708
vt 0.773286 0.599392
vt 0.821642 0.598886
vt 0.772050 0.451808
vt 0.784585 0.469084
vt 0.917415 0.109586
vt 0.958321 0.111737
vt 0.844634 0.593920
vt 0.752385 0.593790
vt 0.811481 0.630463
vt 0.780636 0.627723
vt 0.820580 0.643270
vt 0.771727 0.638425
vt 0.906079 0.233689
vt 0.888976 0.233689
vt 0.885851 0.225140
vt 0.884647 0.217324
vt 0.883286 0.208492
vt 0.906079 0.203259
vt 0.783666 0.233700
vt 0.807052 0.233697
vt 0.807060 0.299295
vt 0.783674 0.299298
vt 0.906078 0.329717
vt 0.883286 0.324483
vt 0.884648 0.315643
vt 0.886032 0.306661
vt 0.888975 0.299286
vt 0.906078 0.299286
vt 0.815988 0.233696
vt 0.816004 0.299294
vt 0.826548 0.299291
vt 0.826533 0.233694
vt 0.842567 0.233690
vt 0.842578 0.299288
vt 0.815364 0.660637
vt 0.749756 0.660781
vt 0.749898 0.651680
vt 0.815487 0.652698
vt 0.815372 0.671182
vt 0.749764 0.671326
vt 0.874133 0.314861
vt 0.875517 0.305879
vt 0.875336 0.225922
vt 0.874132 0.218107
vt 0.858808 0.222829
vt 0.864721 0.228080
vt 0.860231 0.233689
vt 0.854318 0.233689
vt 0.815399 0.681247
vt 0.749797 0.682158
vt 0.858814 0.310141
vt 0.865609 0.304105
vt 0.854324 0.299286
vt 0.861119 0.299286
vt 0.815487 0.687833
vt 0.749901 0.689341
vt 0.858958 0.370698
vt 0.853044 0.507305
vt 0.854043 0.612371
vt 0.006437 0.529758
vt 0.004205 0.558302
vt 0.030813 0.452085
vt 0.019946 0.503997
vt 0.582971 0.291351
vt 0.579241 0.216338
vt 0.420358 0.433804
vt 0.575929 0.151543
vt 0.584477 0.428237
vt 0.309639 0.161836
vt 0.325356 0.066436
vt 0.287689 0.809363
vt 0.287663 0.876209
vt 0.584477 0.012739
vt 0.287689 0.951530
vt 0.356850 0.009727
vt 0.471435 0.430770
vt 0.030421 0.958277
vt 0.026664 0.968332
vt 0.049112 0.963942
vt 0.049095 0.975903
vt 0.383236 0.923165
vt 0.400619 0.893901
vt 0.964565 0.401999
vt 0.964565 0.356093
vt 0.983097 0.356093
vt 0.983096 0.401999
vt 0.513006 0.741896
vt 0.555723 0.725087
vt 0.560526 0.749719
vt 0.526747 0.757703
vt 0.985262 0.269929
vt 0.985262 0.304639
vt 0.966731 0.304639
vt 0.966731 0.269929
vt 0.983097 0.440839
vt 0.964565 0.440839
vt 0.985262 0.243191
vt 0.966731 0.243191
vt 0.966731 0.211906
vt 0.985262 0.211906
vt 0.506166 0.774774
vt 0.489933 0.773140
vt 0.484360 0.809027
vt 0.502400 0.805831
vt 0.498831 0.836879
vt 0.482007 0.854083
vt 0.983097 0.477156
vt 0.964565 0.477156
vt 0.966731 0.180653
vt 0.985262 0.180653
vt 0.983097 0.522274
vt 0.964565 0.522274
vt 0.985262 0.150149
vt 0.966731 0.150149
vt 0.966731 0.109586
vt 0.985262 0.109586
vt 0.983097 0.566182
vt 0.964565 0.566182
vt 0.529335 0.836970
vt 0.525899 0.855252
vt 0.983097 0.610215
vt 0.964565 0.610215
vt 0.560526 0.862903
vt 0.558013 0.885378
vt 0.909808 0.833190
vt 0.943587 0.841174
vt 0.938785 0.865807
vt 0.896067 0.848998
vt 0.872994 0.817753
vt 0.889228 0.816120
vt 0.867422 0.781867
vt 0.885462 0.785062
vt 0.865068 0.736810
vt 0.881893 0.754014
vt 0.908961 0.735642
vt 0.912396 0.753923
vt 0.941074 0.705516
vt 0.943587 0.727991
vt 0.579126 0.785773
vt 0.573742 0.784668
vt 0.580471 0.773173
vt 0.583947 0.773887
vt 0.568936 0.735838
vt 0.579932 0.743150
vt 0.579126 0.752164
vt 0.573742 0.753268
vt 0.830857 0.369462
vt 0.830857 0.380938
vt 0.822863 0.380938
vt 0.822863 0.369462
vt 0.579932 0.794787
vt 0.583947 0.805538
vt 0.572951 0.812850
vt 0.568936 0.802098
vt 0.457988 0.834715
vt 0.457988 0.846192
vt 0.449994 0.846192
vt 0.449994 0.834715
vt 0.572951 0.725087
vt 0.583947 0.732399
vt 0.450478 0.825678
vt 0.457504 0.825678
vt 0.823347 0.351388
vt 0.830373 0.351388
vt 0.456260 0.812912
vt 0.451722 0.812912
vt 0.451722 0.809363
vt 0.456260 0.809363
vt 0.824591 0.338127
vt 0.829128 0.338127
vt 0.583947 0.764050
vt 0.580471 0.764763
vt 0.689605 0.870362
vt 0.683089 0.866384
vt 0.694628 0.857746
vt 0.701158 0.856310
vt 0.409029 0.825304
vt 0.426842 0.829684
vt 0.430031 0.841843
vt 0.423514 0.845821
vt 0.686416 0.882521
vt 0.701158 0.894903
vt 0.668791 0.902842
vt 0.668604 0.886901
vt 0.802918 0.431892
vt 0.783666 0.431892
vt 0.783666 0.420787
vt 0.802918 0.420787
vt 0.409217 0.809363
vt 0.441584 0.817302
vt 0.815471 0.421459
vt 0.815471 0.431219
vt 0.424971 0.875410
vt 0.424971 0.864305
vt 0.450078 0.864978
vt 0.450078 0.874738
vt 0.471074 0.866707
vt 0.471074 0.873009
vt 0.464387 0.873009
vt 0.464387 0.866707
vt 0.833580 0.423188
vt 0.833580 0.429490
vt 0.441584 0.855895
vt 0.435053 0.854459
vt 0.409029 0.875410
vt 0.409029 0.864305
vt 0.310488 0.567736
vt 0.471969 0.567460
vt 0.471974 0.596563
vt 0.310523 0.596885
vt 0.615626 0.163881
vt 0.616255 0.005083
vt 0.638820 0.004558
vt 0.638519 0.163893
vt 0.471918 0.625605
vt 0.310701 0.625970
vt 0.592888 0.163803
vt 0.593582 0.005461
vt 0.471860 0.654693
vt 0.310895 0.654942
vt 0.752688 0.163185
vt 0.751761 0.005291
vt 0.774393 0.005091
vt 0.775256 0.163275
vt 0.471840 0.683832
vt 0.310978 0.683833
vt 0.730134 0.163204
vt 0.729027 0.005064
vt 0.471860 0.712972
vt 0.310895 0.712723
vt 0.661545 0.163784
vt 0.661341 0.004205
vt 0.683860 0.004241
vt 0.684559 0.163577
vt 0.707443 0.163351
vt 0.706399 0.004611
vt 0.471918 0.742060
vt 0.310701 0.741695
vt 0.157302 0.836640
vt 0.157302 0.865771
vt 0.150624 0.868537
vt 0.150624 0.833874
vt 0.471974 0.771103
vt 0.310523 0.770780
vt 0.471969 0.800205
vt 0.310489 0.799929
vt 0.594467 0.740973
vt 0.596439 0.723192
vt 0.749875 0.743646
vt 0.748657 0.754631
vt 0.637870 0.862611
vt 0.615211 0.862611
vt 0.612601 0.856310
vt 0.640480 0.856310
vt 0.424050 0.513312
vt 0.436644 0.500918
vt 0.453083 0.507782
vt 0.430828 0.529802
vt 0.424430 0.470632
vt 0.406622 0.470300
vt 0.403656 0.462986
vt 0.431505 0.454416
vt 0.436790 0.483248
vt 0.453239 0.476515
vt 0.599189 0.878633
vt 0.592888 0.876023
vt 0.394039 0.482919
vt 0.377898 0.476382
vt 0.615211 0.917315
vt 0.637870 0.917315
vt 0.640480 0.923616
vt 0.612601 0.923616
vt 0.599189 0.901293
vt 0.592888 0.903902
vt 0.406380 0.513166
vt 0.399497 0.529632
vt 0.653893 0.878633
vt 0.660194 0.876023
vt 0.653893 0.901293
vt 0.660194 0.903902
vt 0.393982 0.500573
vt 0.377467 0.507346
vt 0.736250 0.875177
vt 0.728435 0.882991
vt 0.717383 0.882991
vt 0.709568 0.875177
vt 0.709568 0.864125
vt 0.717383 0.856310
vt 0.728435 0.856310
vt 0.736250 0.864125
vt 0.593283 0.794593
vt 0.592888 0.776708
vt 0.747681 0.776708
vt 0.747926 0.787757
vt 0.594467 0.812443
vt 0.748657 0.798785
vt 0.593283 0.758823
vt 0.747926 0.765659
vt 0.596439 0.830224
vt 0.749875 0.809770
vt 0.599194 0.847900
vt 0.751577 0.820690
vt 0.599194 0.705516
vt 0.751577 0.732726
vt 0.765382 0.832157
vt 0.761341 0.810775
vt 0.846532 0.800113
vt 0.848589 0.810997
vt 0.125951 0.862667
vt 0.126006 0.840989
vt 0.142214 0.834195
vt 0.142214 0.869321
vt 0.110594 0.877937
vt 0.117374 0.894139
vt 0.207031 0.886369
vt 0.227630 0.865771
vt 0.234308 0.868537
vt 0.209798 0.893047
vt 0.088963 0.877837
vt 0.082266 0.894075
vt 0.177901 0.816041
vt 0.175134 0.809363
vt 0.177900 0.886369
vt 0.175134 0.893047
vt 0.073789 0.862432
vt 0.057523 0.869127
vt 0.912134 0.564072
vt 0.912134 0.529409
vt 0.956155 0.529409
vt 0.956155 0.564072
vt 0.912134 0.390757
vt 0.912134 0.356093
vt 0.956155 0.356093
vt 0.956155 0.390757
vt 0.912134 0.460083
vt 0.912134 0.425420
vt 0.956155 0.425420
vt 0.956155 0.460083
vt 0.912134 0.598735
vt 0.956155 0.598735
vt 0.912134 0.494746
vt 0.956155 0.494746
vt 0.912134 0.633399
vt 0.956155 0.633399
vt 0.227630 0.836640
vt 0.207031 0.816041
vt 0.209798 0.809363
vt 0.234308 0.833874
vt 0.110724 0.825613
vt 0.117380 0.809363
vt 0.089074 0.825540
vt 0.082304 0.809375
vt 0.073741 0.840802
vt 0.057579 0.834102
vt 0.465410 0.512676
vt 0.436087 0.541991
vt 0.399204 0.452088
vt 0.436242 0.442214
vt 0.465410 0.471246
vt 0.555438 0.632905
vt 0.567871 0.656916
vt 0.533365 0.679653
vt 0.517057 0.648516
vt 0.365591 0.471103
vt 0.567431 0.502476
vt 0.554896 0.526186
vt 0.516596 0.510733
vt 0.532601 0.479376
vt 0.584477 0.481225
vt 0.554871 0.453546
vt 0.394586 0.541977
vt 0.515158 0.468135
vt 0.539353 0.442214
vt 0.503116 0.579597
vt 0.506669 0.614779
vt 0.485884 0.618755
vt 0.482007 0.579450
vt 0.556070 0.705011
vt 0.540773 0.716677
vt 0.516020 0.691217
vt 0.506391 0.544447
vt 0.485806 0.540218
vt 0.497231 0.502668
vt 0.497398 0.656655
vt 0.547678 0.606759
vt 0.547571 0.552278
vt 0.545019 0.579541
vt 0.584477 0.677522
vt 0.365260 0.512567
vt 0.850640 0.659513
vt 0.850640 0.670590
vt 0.842807 0.678423
vt 0.831730 0.678423
vt 0.823897 0.670590
vt 0.823897 0.659513
vt 0.831730 0.651680
vt 0.842807 0.651680
vt 0.761341 0.767339
vt 0.765382 0.745957
vt 0.848589 0.767117
vt 0.846532 0.778001
vt 0.772046 0.725242
vt 0.781232 0.705516
vt 0.856658 0.746530
vt 0.851982 0.756572
vt 0.772046 0.852871
vt 0.851982 0.821542
vt 0.759987 0.789057
vt 0.845843 0.789057
vt 0.781232 0.872598
vt 0.856658 0.831584
vt 0.005066 0.771003
vt 0.154161 0.771829
vt 0.154164 0.800953
vt 0.005109 0.800194
vt 0.004741 0.741892
vt 0.154183 0.742639
vt 0.004371 0.712852
vt 0.154213 0.713289
vt 0.004205 0.683833
vt 0.154226 0.683833
vt 0.004371 0.654813
vt 0.154213 0.654376
vt 0.004741 0.625773
vt 0.154183 0.625026
vt 0.005066 0.596663
vt 0.154161 0.595836
vt 0.005109 0.567472
vt 0.154164 0.566712
vt 0.639780 0.442937
vt 0.639722 0.303224
vt 0.662054 0.303369
vt 0.662484 0.443008
vt 0.685138 0.443197
vt 0.684446 0.303259
vt 0.706975 0.302950
vt 0.707713 0.443370
vt 0.729667 0.302588
vt 0.730229 0.443398
vt 0.752451 0.302393
vt 0.752752 0.443224
vt 0.775162 0.302436
vt 0.775256 0.442921
vt 0.594553 0.443293
vt 0.594691 0.302859
vt 0.617288 0.303001
vt 0.617157 0.443041
vt 0.791130 0.369609
vt 0.797386 0.360316
vt 0.809190 0.364412
vt 0.813339 0.377634
vt 0.858123 0.696823
vt 0.844285 0.695431
vt 0.844285 0.688224
vt 0.858123 0.686833
vt 0.809957 0.386995
vt 0.798315 0.394511
vt 0.786459 0.390227
vt 0.787747 0.378970
vt 0.783666 0.363008
vt 0.792163 0.355496
vt 0.797328 0.403926
vt 0.787533 0.400014
vt 0.814452 0.356416
vt 0.804101 0.352980
vt 0.809212 0.343025
vt 0.814452 0.345102
vt 0.799401 0.348661
vt 0.834797 0.694930
vt 0.834797 0.688726
vt 0.812313 0.338127
vt 0.813002 0.338736
vt 0.808522 0.342415
vt 0.823897 0.692280
vt 0.823897 0.691376
vt 0.790012 0.412377
vt 0.784746 0.410468
vt 0.928475 0.931063
vt 0.903455 0.960809
vt 0.887623 0.922725
vt 0.896369 0.914847
vt 0.891574 0.903748
vt 0.877727 0.918817
vt 0.865607 0.908478
vt 0.875799 0.888941
vt 0.829399 0.930603
vt 0.819686 0.892157
vt 0.934235 0.895075
vt 0.920109 0.866802
vt 0.858337 0.964867
vt 0.434509 0.984427
vt 0.411794 0.952886
vt 0.452594 0.946859
vt 0.458091 0.957267
vt 0.470027 0.955335
vt 0.458806 0.938221
vt 0.471798 0.929001
vt 0.488245 0.943665
vt 0.459209 0.888478
vt 0.498863 0.888472
vt 0.467992 0.998822
vt 0.498863 0.992047
vt 0.418904 0.908147
vt 0.697627 0.957526
vt 0.689870 0.919098
vt 0.750015 0.915319
vt 0.737339 0.942060
vt 0.746389 0.953168
vt 0.761883 0.943089
vt 0.762429 0.955420
vt 0.753024 0.959699
vt 0.786594 0.979353
vt 0.757290 0.997046
vt 0.718201 0.990240
vt 0.804140 0.949854
vt 0.804140 0.915319
vt 0.511269 0.926182
vt 0.525097 0.889500
vt 0.578070 0.918229
vt 0.553130 0.934160
vt 0.554902 0.948377
vt 0.573383 0.948063
vt 0.567298 0.958802
vt 0.557057 0.957435
vt 0.575069 0.991915
vt 0.540842 0.991348
vt 0.511333 0.964826
vt 0.605603 0.976234
vt 0.623939 0.946966
s 1
usemtl Material
f 37/1/1 592/2/1 590/3/1 589/4/1
f 10/5/1 564/6/1 563/7/1 12/8/1
f 569/9/2 42/10/3 46/11/4 568/12/5
f 90/13/6 127/14/7 124/15/8 88/16/9
f 89/17/10 1/18/11 5/19/12 91/20/13
f 101/21/14 18/22/15 574/23/16 573/24/17
f 111/25/18 43/9/19 567/12/20 114/26/21
f 20/27/22 580/28/1 581/29/1 597/30/23
f 100/31/24 152/32/25 572/33/26 571/34/27
f 96/35/28 586/36/29 587/37/30 14/38/31
f 107/39/32 177/40/33 136/41/33 584/42/34
f 105/43/35 617/44/36 588/45/37 95/46/38
f 94/47/39 96/35/28 14/38/31 591/48/40
f 18/22/15 20/27/22 597/30/23 575/23/41
f 1/18/11 10/5/1 12/8/1 5/19/12
f 34/44/1 37/1/1 589/4/1 9/45/1
s 0
f 13/49/42 576/50/42 595/51/42 16/52/42
f 577/53/43 576/50/43 13/49/43 582/54/43
f 93/55/44 99/56/44 131/57/44 713/58/44
s 1
f 5/19/12 12/8/1 20/27/22 18/22/15
f 88/16/9 124/15/8 152/32/25 100/31/24
f 12/8/1 563/7/1 580/28/1 20/27/22
f 91/20/13 5/19/12 18/22/15 101/21/14
f 118/59/45 117/60/46 21/61/47 609/62/48
s 0
f 613/63/49 116/64/49 158/65/49 614/66/49
s 1
f 609/62/48 21/61/47 603/67/50 604/68/50
s 0
f 606/69/51 608/70/51 22/71/51 612/72/51
s 1
f 605/73/52 23/74/52 24/75/52 607/76/52
f 119/77/53 166/78/54 164/79/54 610/80/55
f 26/76/56 28/81/57 27/82/58 25/73/56
f 564/6/1 10/5/1 31/83/1 570/84/1
f 89/17/10 130/85/59 170/86/60 102/87/61
f 10/5/1 1/18/11 29/88/62 31/83/1
f 90/13/6 2/6/63 30/84/64 103/89/65
f 39/90/1 40/91/1 37/1/1 34/44/1
f 602/92/66 594/93/67 593/94/68 104/95/69
f 109/96/70 618/90/71 617/44/36 105/43/35
f 600/97/72 601/98/33 176/99/73 106/100/74
f 108/101/75 184/102/76 177/40/33 107/39/32
f 40/91/1 616/103/1 592/2/1 37/1/1
f 36/104/77 32/105/1 616/103/1 40/91/1
f 106/100/74 176/99/73 184/102/76 108/101/75
f 104/95/69 593/94/68 618/90/71 109/96/70
f 35/94/78 36/104/77 40/91/1 39/90/1
f 570/84/1 31/83/1 42/10/3 569/9/2
f 102/87/61 170/86/60 716/106/79 110/107/80
f 31/83/1 29/88/62 619/108/81 42/10/3
f 103/89/65 30/84/64 43/9/19 111/25/18
f 114/26/21 567/12/20 565/109/82 97/110/83
f 623/11/84 44/111/85 624/112/86 596/113/87
f 113/114/88 196/115/89 194/116/90 621/117/91
f 47/12/1 623/11/84 596/113/87 566/109/1
f 115/118/92 129/119/93 599/120/94 598/121/95
f 620/107/96 189/106/97 196/115/89 113/114/88
f 42/10/3 619/108/81 44/111/85 46/11/4
f 112/122/98 622/123/99 129/119/93 115/118/92
f 48/124/100 639/125/101 637/126/102 209/127/102
f 628/128/103 51/129/103 216/130/104 646/131/104
f 56/132/105 642/133/106 634/134/107 633/135/108
f 57/136/109 641/137/110 50/138/111 625/139/112
f 58/140/113 639/125/101 48/124/100 630/141/114
f 59/135/115 54/134/116 52/125/117 631/140/118
f 55/142/119 59/135/115 631/140/118 53/143/120
f 634/134/107 642/133/106 643/144/121 635/145/121
f 52/125/117 54/134/116 636/145/122 638/126/122
f 50/138/111 641/137/110 640/146/123 207/147/123
f 632/143/124 58/140/113 630/141/114 629/148/125
f 49/128/126 57/136/109 625/139/112 627/129/126
f 626/149/127 56/132/105 633/135/108 644/142/128
f 55/142/119 53/143/120 217/150/129 218/151/129
f 632/143/124 629/148/125 215/152/130 647/150/130
f 626/149/127 644/142/128 648/151/131 645/153/131
f 60/154/132 663/155/133 659/156/134 229/157/134
f 652/158/135 63/159/135 236/160/136 670/161/136
f 68/162/137 666/163/138 658/164/139 657/165/140
f 69/166/141 665/167/142 62/168/143 649/169/144
f 70/170/145 663/155/133 60/154/132 654/171/146
f 71/165/147 66/164/148 64/155/149 655/170/150
f 67/172/151 71/165/147 655/170/150 65/173/152
f 658/164/139 666/163/138 667/174/153 661/175/153
f 64/155/149 66/164/148 662/175/154 660/156/154
f 62/168/143 665/167/142 664/176/155 227/177/155
f 656/173/156 70/170/145 654/171/146 653/178/157
f 61/158/158 69/166/141 649/169/144 651/159/158
f 650/179/159 68/162/137 657/165/140 668/172/160
f 67/172/151 65/173/152 237/180/161 238/181/161
f 656/173/156 653/178/157 235/182/162 671/180/162
f 650/179/159 668/172/160 672/181/163 669/183/163
s 0
f 241/184/102 242/185/102 685/186/102 673/187/102 675/188/102 677/189/102
f 74/190/164 676/191/164 678/192/164 680/193/164
f 72/194/121 679/195/121 687/196/121 681/197/121 683/198/121 239/199/121
f 75/191/165 674/200/165 688/201/165 73/192/165
s 1
f 80/202/166 83/203/166 87/204/167 84/205/167
s 0
f 682/206/168 686/207/168 684/208/168 240/209/168
s 1
f 76/207/169 77/206/169 81/210/170 690/211/170
f 78/201/171 79/200/171 83/203/166 80/202/166
s 0
f 681/197/121 687/196/121 692/212/121 689/213/121
f 673/187/102 685/186/102 82/214/102 691/215/102
f 693/216/102 86/217/102 707/218/102 711/219/102
s 1
f 690/211/170 81/210/170 85/220/172 696/221/173
s 0
f 691/215/102 82/214/102 86/217/102 693/216/102
f 689/213/121 692/212/121 694/222/121 695/223/121
f 695/223/121 694/222/121 698/224/121 702/225/121
s 1
f 84/205/167 87/204/167 712/219/174 700/224/174
f 696/221/173 85/220/172 704/226/175 708/227/175
f 45/228/176 112/122/98 115/118/92 11/229/177
f 619/108/81 620/107/96 113/114/88 44/111/85
f 11/229/177 115/118/92 598/121/95 3/230/178
f 44/111/85 113/114/88 621/117/91 624/112/86
f 195/231/179 114/26/21 97/110/83 128/232/180
f 169/233/181 103/89/65 111/25/18 188/234/182
f 29/88/62 102/87/61 110/107/80 41/108/183
f 179/235/184 104/95/69 109/96/70 185/236/185
f 615/105/186 106/100/74 108/101/75 38/103/187
f 38/103/187 108/101/75 107/39/32 33/2/188
f 578/237/189 600/97/72 106/100/74 615/105/186
f 185/236/185 109/96/70 105/43/35 178/238/190
f 715/239/191 602/92/66 104/95/69 179/235/184
f 127/14/7 90/13/6 103/89/65 169/233/181
f 1/18/11 89/17/10 102/87/61 29/88/62
f 123/240/192 91/20/13 101/21/14 151/241/193
f 4/7/194 88/16/9 100/31/24 19/28/195
s 0
f 16/52/196 595/51/196 99/56/196 93/55/196
s 1
f 585/242/197 143/243/198 96/35/28 94/47/39
f 178/238/190 105/43/35 95/46/38 135/244/199
f 33/2/188 107/39/32 584/42/34 8/3/200
f 143/243/198 714/245/201 586/36/29 96/35/28
f 19/28/195 100/31/24 571/34/27 583/29/202
f 188/234/182 111/25/18 114/26/21 195/231/179
f 151/241/193 101/21/14 573/24/17 147/246/203
f 130/85/59 89/17/10 91/20/13 123/240/192
f 2/6/63 90/13/6 88/16/9 4/7/194
f 35/94/78 7/93/204 17/247/205 36/104/77
f 17/247/205 579/237/1 32/105/1 36/104/77
s 0
f 6/53/206 15/54/206 92/248/206 98/249/206
f 132/250/207 145/251/207 98/249/207 92/248/207
s 1
f 28/81/57 119/77/53 610/80/55 27/82/58
s 0
f 612/72/208 22/71/208 116/64/208 613/63/208
s 1
f 611/252/209 157/253/209 117/60/46 118/59/45
f 181/1/210 741/4/210 742/3/210 744/2/210
f 139/5/210 141/8/210 717/7/210 718/6/210
f 723/9/211 722/12/212 197/11/213 190/10/214
f 265/13/215 263/16/216 124/15/8 127/14/7
f 264/17/217 266/20/218 126/19/219 120/18/220
f 276/21/221 726/24/222 727/23/223 150/22/224
f 286/25/225 289/26/226 721/12/227 191/9/228
f 154/27/229 749/30/230 734/29/210 733/28/210
f 275/31/231 725/34/232 572/33/26 152/32/25
f 271/35/233 144/38/234 739/37/235 738/36/236
f 282/39/237 737/42/238 136/41/33 177/40/33
f 280/43/239 270/46/240 740/45/241 765/44/242
f 269/47/243 743/48/244 144/38/234 271/35/233
f 150/22/224 728/23/245 749/30/230 154/27/229
f 120/18/220 126/19/219 141/8/210 139/5/210
f 174/44/210 138/45/210 741/4/210 181/1/210
s 0
f 142/49/246 148/52/246 747/51/246 729/50/246
f 730/53/247 735/54/247 142/49/247 729/50/247
f 268/55/248 713/58/248 131/57/248 274/56/248
s 1
f 126/19/219 150/22/224 154/27/229 141/8/210
f 263/16/216 275/31/231 152/32/25 124/15/8
f 141/8/210 154/27/229 733/28/210 717/7/210
f 266/20/218 276/21/221 150/22/224 126/19/219
f 293/59/249 759/62/250 155/61/251 292/60/252
s 0
f 762/63/253 614/66/253 158/65/253 291/64/253
s 1
f 759/62/250 754/68/254 753/67/254 155/61/251
s 0
f 756/69/255 761/72/255 156/71/255 758/70/255
s 1
f 755/73/256 757/76/256 160/75/256 159/74/256
f 294/77/257 760/80/258 164/79/54 166/78/54
f 162/76/259 161/73/259 163/82/260 165/81/261
f 718/6/210 724/84/210 171/83/210 139/5/210
f 264/17/217 277/87/262 170/86/60 130/85/59
f 139/5/210 171/83/210 167/88/263 120/18/220
f 265/13/215 278/89/264 168/84/265 121/6/266
f 183/90/210 174/44/210 181/1/210 186/91/210
f 752/92/267 279/95/268 745/94/269 746/93/270
f 284/96/271 280/43/239 765/44/242 766/90/272
f 751/97/273 281/100/274 176/99/73 601/98/33
f 283/101/275 282/39/237 177/40/33 184/102/76
f 186/91/210 181/1/210 744/2/210 764/103/210
f 180/104/276 186/91/210 764/103/210 172/105/210
f 281/100/274 283/101/275 184/102/76 176/99/73
f 279/95/268 284/96/271 766/90/272 745/94/269
f 175/94/277 183/90/210 186/91/210 180/104/276
f 724/84/210 723/9/211 190/10/214 171/83/210
f 277/87/262 285/107/278 716/106/79 170/86/60
f 171/83/210 190/10/214 767/108/279 167/88/263
f 278/89/264 286/25/225 191/9/228 168/84/265
f 289/26/226 272/110/280 719/109/281 721/12/227
f 770/11/282 748/113/283 771/112/284 192/111/285
f 288/114/286 769/117/287 194/116/90 196/115/89
f 198/12/210 720/109/210 748/113/283 770/11/282
f 290/118/288 750/121/289 599/120/94 129/119/93
f 768/107/290 288/114/286 196/115/89 189/106/97
f 190/10/214 197/11/213 192/111/285 767/108/279
f 287/122/291 290/118/288 129/119/93 622/123/99
f 199/124/292 209/127/102 637/126/102 782/125/293
f 775/128/294 646/131/104 216/130/104 202/129/294
f 211/132/295 780/135/296 781/134/297 784/133/298
f 212/136/299 772/139/300 201/138/301 783/137/302
f 213/140/303 777/141/304 199/124/292 782/125/293
f 214/135/305 778/140/306 203/125/307 205/134/308
f 206/142/309 204/143/310 778/140/306 214/135/305
f 781/134/297 635/145/121 643/144/121 784/133/298
f 203/125/307 210/126/311 208/145/311 205/134/308
f 201/138/301 207/147/123 640/146/123 783/137/302
f 779/143/312 776/148/313 777/141/304 213/140/303
f 200/128/314 774/129/314 772/139/300 212/136/299
f 773/149/315 785/142/316 780/135/296 211/132/295
f 206/142/309 218/151/129 217/150/129 204/143/310
f 779/143/312 647/150/130 215/152/130 776/148/313
f 773/149/315 645/153/131 648/151/131 785/142/316
f 219/154/317 229/157/134 659/156/134 796/155/318
f 789/158/319 670/161/136 236/160/136 222/159/319
f 231/162/320 794/165/140 795/164/321 798/163/322
f 232/166/323 786/169/324 221/168/325 797/167/326
f 233/170/327 791/171/328 219/154/317 796/155/318
f 234/165/329 792/170/330 223/155/331 225/164/332
f 226/172/333 224/173/334 792/170/330 234/165/329
f 795/164/321 661/175/153 667/174/153 798/163/322
f 223/155/331 230/156/335 228/175/335 225/164/332
f 221/168/325 227/177/155 664/176/155 797/167/326
f 793/173/336 790/178/337 791/171/328 233/170/327
f 220/158/338 788/159/338 786/169/324 232/166/323
f 787/179/339 799/172/340 794/165/140 231/162/320
f 226/172/333 238/181/161 237/180/161 224/173/334
f 793/173/336 671/180/162 235/182/162 790/178/337
f 787/179/339 669/183/163 672/181/163 799/172/340
s 0
f 241/184/102 804/189/102 802/188/102 800/187/102 810/186/102 242/185/102
f 245/190/341 807/193/341 805/192/341 803/191/341
f 243/194/121 239/199/121 683/198/121 808/197/121 812/196/121 806/195/121
f 246/191/342 244/192/342 813/201/342 801/200/342
s 1
f 251/202/343 255/205/344 258/204/344 254/203/343
s 0
f 809/206/345 240/209/345 684/208/345 811/207/345
s 1
f 247/207/346 815/211/347 252/210/347 248/206/346
f 249/201/348 251/202/343 254/203/343 250/200/348
s 0
f 808/197/121 814/213/121 817/212/121 812/196/121
f 800/187/102 816/215/102 253/214/102 810/186/102
f 818/216/102 709/219/102 706/218/102 257/217/102
s 1
f 815/211/347 821/221/349 256/220/350 252/210/347
s 0
f 816/215/102 818/216/102 257/217/102 253/214/102
f 814/213/121 820/223/121 819/222/121 817/212/121
s 1
f 697/224/1 701/225/1 705/218/1 710/219/1
s 0
f 820/223/121 703/225/121 699/224/121 819/222/121
s 1
f 255/205/344 259/224/351 262/219/351 258/204/344
f 821/221/349 261/227/352 260/226/352 256/220/350
f 193/228/353 140/229/354 290/118/288 287/122/291
f 767/108/279 192/111/285 288/114/286 768/107/290
f 140/229/354 122/230/355 750/121/289 290/118/288
f 192/111/285 771/112/284 769/117/287 288/114/286
f 195/231/179 128/232/180 272/110/280 289/26/226
f 169/233/181 188/234/182 286/25/225 278/89/264
f 167/88/263 187/108/356 285/107/278 277/87/262
f 179/235/184 185/236/185 284/96/271 279/95/268
f 763/105/357 182/103/358 283/101/275 281/100/274
f 182/103/358 173/2/359 282/39/237 283/101/275
f 731/237/360 763/105/357 281/100/274 751/97/273
f 185/236/185 178/238/190 280/43/239 284/96/271
f 715/239/191 179/235/184 279/95/268 752/92/267
f 127/14/7 169/233/181 278/89/264 265/13/215
f 120/18/220 167/88/263 277/87/262 264/17/217
f 123/240/192 151/241/193 276/21/221 266/20/218
f 125/7/361 153/28/362 275/31/231 263/16/216
s 0
f 148/52/363 268/55/363 274/56/363 747/51/363
s 1
f 585/242/197 269/47/243 271/35/233 143/243/198
f 178/238/190 135/244/199 270/46/240 280/43/239
f 173/2/359 137/3/364 737/42/238 282/39/237
f 143/243/198 271/35/233 738/36/236 714/245/201
f 153/28/362 736/29/365 725/34/232 275/31/231
f 188/234/182 195/231/179 289/26/226 286/25/225
f 151/241/193 147/246/203 726/24/222 276/21/221
f 130/85/59 123/240/192 266/20/218 264/17/217
f 121/6/266 125/7/361 263/16/216 265/13/215
f 175/94/277 180/104/276 149/247/366 134/93/367
f 149/247/366 180/104/276 172/105/210 732/237/210
s 0
f 133/53/368 273/249/368 267/248/368 146/54/368
f 132/250/369 267/248/369 273/249/369 145/251/369
s 1
f 165/81/261 163/82/260 760/80/258 294/77/257
s 0
f 761/72/370 762/63/370 291/64/370 156/71/370
s 1
f 611/252/209 293/59/249 292/60/252 157/253/209
f 825/254/371 824/255/372 826/256/372 827/257/371
f 301/258/1 302/259/1 828/260/1 829/261/1
f 299/262/373 300/263/374 823/264/374 822/265/373
f 825/254/371 827/257/371 830/266/375 831/267/375
f 305/268/376 832/269/376 834/270/377 309/271/377
f 301/258/1 829/261/1 833/272/1 306/273/1
f 299/262/373 822/265/373 832/269/376 305/268/376
f 310/274/1 835/275/1 844/276/1 839/277/1
f 831/267/375 830/266/375 836/278/378 837/279/378
f 306/273/1 833/272/1 835/275/1 310/274/1
f 309/271/377 834/270/377 842/280/379 845/281/379
f 837/279/378 836/278/378 838/282/380 840/283/380
f 317/284/381 847/285/381 850/286/382 321/287/382
f 313/281/383 843/280/383 847/285/381 317/284/381
f 841/283/384 314/282/384 849/288/385 846/289/385
f 839/277/1 844/276/1 848/290/1 318/291/1
f 846/289/385 849/288/385 852/292/386 853/293/386
f 318/291/1 848/290/1 851/294/1 322/295/1
f 295/296/210 296/297/210 298/298/210 297/299/210
f 297/299/210 304/300/210 303/301/210 295/296/210
f 303/301/210 304/300/210 308/302/210 307/303/210
f 308/302/210 312/304/210 311/305/210 307/303/210
f 312/304/210 316/306/210 315/307/210 311/305/210
f 315/307/210 316/306/210 320/308/210 319/309/210
f 864/310/387 332/311/388 869/312/389 870/313/389
f 330/314/390 328/315/391 334/316/392 331/317/393
f 855/318/394 854/319/395 861/320/395 860/321/394
f 857/322/396 856/323/1 325/324/1 326/325/397
f 859/326/398 858/327/399 323/328/399 324/329/398
f 330/314/390 329/330/210 327/331/210 328/315/391
f 859/326/398 324/329/398 333/332/400 862/333/400
f 855/318/394 860/321/394 863/334/401 865/335/401
f 857/322/396 326/325/397 332/311/388 864/310/387
f 872/336/402 871/337/402 868/338/402 866/339/402
f 862/333/400 333/332/400 337/337/403 873/336/403
f 865/335/401 863/334/401 867/340/404 336/341/404
f 331/317/393 334/316/392 338/342/405 335/343/405
f 884/344/406 348/345/407 352/346/408 887/347/408
f 346/348/409 344/349/410 350/350/411 347/351/412
f 877/352/413 876/353/1 874/354/1 342/355/414
f 879/356/415 878/357/416 339/358/416 340/359/415
f 346/348/409 881/360/210 343/361/210 344/349/410
f 879/356/415 340/359/415 349/362/417 882/363/417
f 875/364/418 880/365/418 883/366/419 885/367/419
f 877/352/413 342/355/414 348/345/407 884/344/406
f 889/368/420 888/369/420 886/370/421 891/371/421
f 882/363/417 349/362/417 353/372/422 890/373/422
f 885/367/419 883/366/419 891/371/421 886/370/421
f 347/351/412 350/350/411 354/374/423 351/375/423
f 880/365/418 875/364/418 341/376/424 345/377/424
f 468/378/425 895/379/426 894/380/427 469/381/428
f 483/382/429 892/383/430 906/384/431 495/385/432
f 469/381/428 894/380/427 898/386/433 471/387/434
f 487/388/435 893/389/436 892/383/430 483/382/429
f 471/387/434 898/386/433 899/390/437 473/391/438
f 493/392/439 900/393/440 893/394/436 487/395/435
f 473/391/438 899/390/437 901/396/441 475/397/442
f 485/398/443 896/399/444 900/393/440 493/392/439
f 475/397/442 901/396/441 902/400/445 477/401/446
f 497/402/447 907/403/448 903/404/449 492/405/450
f 489/406/451 897/407/452 896/399/444 485/398/443
f 477/401/446 902/400/445 904/408/453 479/409/454
f 366/410/121 364/411/121 414/412/121 936/413/121
f 492/405/450 903/404/449 897/407/452 489/406/451
f 479/409/454 904/408/453 905/414/455 481/415/456
f 495/385/432 906/384/431 907/403/448 497/402/447
f 481/415/456 905/414/455 895/416/426 468/417/425
f 914/418/457 387/419/458 395/420/458 922/421/457
f 386/422/121 384/423/121 954/424/121 955/425/121
f 913/426/102 911/427/102 438/428/459 440/429/460
f 912/430/102 909/431/102 436/432/461 439/433/462
f 911/427/102 910/434/102 437/435/463 438/428/459
f 384/423/121 382/436/121 948/437/121 954/424/121
f 909/431/102 908/438/102 435/439/464 436/432/461
f 378/440/121 376/441/121 950/442/121 952/443/121
f 380/444/121 378/440/121 952/443/121 949/445/121
f 915/446/102 913/426/102 440/429/460 442/447/465
f 355/448/121 386/422/121 955/425/121 953/449/121
f 376/441/121 374/450/121 951/451/121 950/442/121
f 393/452/102 915/446/102 442/447/465 441/453/466
f 908/438/102 393/452/102 441/453/466 435/439/464
f 382/436/121 380/444/121 949/445/121 948/437/121
f 374/450/121 355/448/121 953/449/121 951/451/121
f 910/434/102 912/430/102 439/433/462 437/435/463
f 919/454/102 921/455/102 923/456/102 401/457/102 916/458/102 917/459/102 920/460/102 918/461/102
f 390/462/467 392/463/468 400/464/468 398/465/467
f 389/466/469 390/462/467 398/465/467 397/467/469
f 394/468/470 914/418/457 922/421/457 402/469/470
f 391/470/471 389/466/469 397/467/469 399/471/471
f 388/472/472 391/470/471 399/471/471 396/473/472
f 387/419/458 388/474/472 396/475/472 395/420/458
f 392/463/468 394/468/470 402/469/470 400/464/468
f 926/476/473 403/477/474 459/478/474 966/479/473
f 929/480/475 930/481/476 946/482/476 945/483/475
f 928/484/477 929/480/475 945/483/475 944/485/477
f 360/486/121 358/487/121 933/488/121 932/489/121
f 927/490/478 928/484/477 944/485/477 943/491/478
f 368/492/121 366/410/121 936/413/121 937/493/121
f 362/494/121 360/486/121 932/489/121 934/495/121
f 405/496/479 927/490/478 943/491/478 942/497/479
f 938/498/210 416/499/480 424/500/480 425/501/210
f 411/502/481 412/503/482 941/504/482 940/505/481
f 935/506/483 413/507/1 421/508/1 422/509/483
f 939/510/484 938/498/210 425/501/210 947/511/484
f 415/512/123 935/506/483 422/509/483 423/513/123
f 412/514/482 939/510/484 947/511/484 941/515/482
f 416/499/480 415/512/123 423/513/123 424/500/480
f 413/507/1 411/502/481 940/505/481 421/508/1
f 372/516/121 370/517/121 417/518/121 418/519/121
f 930/481/476 931/520/485 426/521/485 946/482/476
f 931/520/485 925/522/486 420/523/486 426/521/485
f 925/522/486 924/524/487 419/525/487 420/523/486
f 364/411/121 362/494/121 934/495/121 414/412/121
f 370/517/121 368/492/121 937/493/121 417/518/121
f 358/487/121 372/516/121 418/519/121 933/488/121
f 924/524/487 405/496/479 942/497/479 419/525/487
f 440/429/460 438/428/459 959/526/488 961/527/489
f 439/433/462 436/432/461 957/528/490 960/529/491
f 438/428/459 437/435/463 958/530/492 959/526/488
f 433/531/493 432/532/494 443/533/495 449/534/496
f 436/432/461 435/439/464 956/535/497 957/528/490
f 430/536/498 429/537/499 445/538/500 447/539/501
f 431/540/502 430/536/498 447/539/501 444/541/503
f 442/447/465 440/429/460 961/527/489 963/542/504
f 444/541/503 447/539/501 455/543/505 452/544/506
f 448/545/507 450/546/508 458/547/509 456/548/510
f 443/533/495 444/549/503 452/550/506 451/551/511
f 445/538/500 446/552/512 454/553/513 453/554/514
f 449/534/496 443/533/495 451/551/511 962/555/515
f 446/552/512 448/545/507 456/548/510 454/553/513
f 450/546/508 449/534/496 962/555/515 458/547/509
f 447/539/501 445/538/500 453/554/514 455/543/505
f 434/556/516 433/531/493 449/534/496 450/546/508
f 437/435/463 439/433/462 960/529/491 958/530/492
f 428/557/517 427/558/518 448/545/507 446/552/512
f 432/532/494 431/559/502 444/549/503 443/533/495
f 435/439/464 441/453/466 457/560/519 956/535/497
f 441/453/466 442/447/465 963/542/504 457/560/519
f 429/537/499 428/557/517 446/552/512 445/538/500
f 427/558/518 434/556/516 450/546/508 448/545/507
f 964/561/102 965/562/102 971/563/102 970/564/102 969/565/102 968/566/102 967/567/102 461/568/102
f 410/569/520 409/570/521 465/571/521 466/572/520
f 408/573/522 407/574/523 463/575/523 464/576/522
f 406/577/524 926/476/473 966/479/473 462/578/524
f 403/477/474 404/579/525 460/580/525 459/478/474
f 404/579/525 410/569/520 466/572/520 460/580/525
f 409/570/521 408/573/522 464/576/522 465/571/521
f 407/581/523 406/577/524 462/578/524 463/582/523
f 371/583/526 482/584/527 467/585/528 357/586/529
f 482/584/527 481/415/456 468/417/425 467/585/528
f 369/587/530 480/588/531 482/584/527 371/583/526
f 480/588/531 479/409/454 481/415/456 482/584/527
f 367/589/532 478/590/533 480/588/531 369/587/530
f 478/590/533 477/401/446 479/409/454 480/588/531
f 365/591/534 476/592/535 478/590/533 367/589/532
f 476/592/535 475/397/442 477/401/446 478/590/533
f 363/593/536 474/594/537 476/592/535 365/591/534
f 474/594/537 473/391/438 475/397/442 476/592/535
f 361/595/538 472/596/539 474/594/537 363/593/536
f 472/596/539 471/387/434 473/391/438 474/594/537
f 359/597/540 470/598/541 472/596/539 361/595/538
f 470/598/541 469/381/428 471/387/434 472/596/539
f 357/599/529 467/600/528 470/598/541 359/597/540
f 467/600/528 468/378/425 469/381/428 470/598/541
f 383/601/542 496/602/543 498/603/544 385/604/545
f 496/602/543 495/385/432 497/402/447 498/603/544
f 356/605/546 491/606/547 490/607/548 373/608/549
f 491/606/547 492/405/450 489/406/451 490/607/548
f 373/608/549 490/607/548 486/609/550 375/610/551
f 490/607/548 489/406/451 485/398/443 486/609/550
f 385/604/545 498/603/544 491/606/547 356/605/546
f 498/603/544 497/402/447 492/405/450 491/606/547
f 375/610/551 486/609/550 494/611/552 377/612/553
f 486/609/550 485/398/443 493/392/439 494/611/552
f 377/612/553 494/611/552 488/613/554 379/614/555
f 494/611/552 493/392/439 487/395/435 488/613/554
f 379/615/555 488/616/554 484/617/556 381/618/557
f 488/616/554 487/388/435 483/382/429 484/617/556
f 381/618/557 484/617/556 496/602/543 383/601/542
f 484/617/556 483/382/429 495/385/432 496/602/543
f 974/619/558 976/620/559 977/621/560 972/622/558
f 973/623/561 502/624/562 980/625/562 978/626/561
f 979/627/563 506/628/564 983/629/565 981/630/563
f 982/631/566 504/632/567 500/620/567 975/619/566
s 0
f 501/622/482 505/627/482 503/630/482 499/619/482
s 1
f 983/629/565 506/628/564 509/633/568 985/634/569
f 987/635/570 986/636/571 988/637/572 990/638/572
f 977/621/560 976/620/559 986/636/571 987/635/570
f 500/620/567 504/632/567 510/639/573 507/636/573
f 980/625/562 502/624/562 508/640/574 984/641/574
s 0
f 992/642/123 991/643/123 989/637/123 994/644/123
s 1
f 507/636/573 510/639/573 995/644/575 511/637/575
f 984/641/574 508/640/574 512/645/576 993/646/576
f 985/634/569 509/633/568 513/647/577 514/648/577
s 0
f 517/649/578 518/650/578 996/651/578 997/652/578
f 525/653/579 999/654/579 1000/655/579 1001/656/579
f 519/656/580 520/655/580 516/657/580 515/658/580
f 523/659/581 998/653/581 519/656/581 515/660/581
f 526/654/582 524/661/582 516/657/582 520/655/582
f 996/651/583 518/650/583 524/661/583 526/654/583
f 517/649/584 997/652/584 998/653/584 523/659/584
f 521/652/585 522/651/585 999/654/585 525/653/585
f 529/662/586 530/663/586 1002/664/586 1003/665/586
f 537/666/587 1005/667/587 1006/668/587 1007/669/587
f 531/669/588 532/668/588 528/670/588 527/671/588
f 535/672/589 1004/666/589 531/669/589 527/673/589
f 538/667/590 536/674/590 528/670/590 532/668/590
f 1002/664/591 530/663/591 536/674/591 538/667/591
f 529/662/592 1003/665/592 1004/666/592 535/672/592
f 533/665/593 534/664/593 1005/667/593 537/666/593
f 541/675/594 542/676/594 1008/677/594 1009/678/594
f 549/679/595 1011/680/595 1012/681/595 1013/682/595
f 543/682/596 544/681/596 540/683/596 539/684/596
f 547/685/597 1010/679/597 543/682/597 539/684/597
f 550/680/598 548/686/598 540/683/598 544/681/598
f 1008/677/599 542/687/599 548/686/599 550/680/599
f 541/675/600 1009/678/600 1010/679/600 547/685/600
f 545/678/601 546/677/601 1011/680/601 549/679/601
f 553/688/602 554/689/602 1014/690/602 1015/691/602
f 561/692/603 1017/693/603 1018/694/603 1019/695/603
f 555/695/604 556/694/604 552/696/604 551/697/604
f 559/698/605 1016/692/605 555/695/605 551/697/605
f 562/693/606 560/699/606 552/696/606 556/694/606
f 1014/690/607 554/700/607 560/699/607 562/693/607
f 553/688/608 1015/691/608 1016/692/608 559/698/608
f 557/691/609 558/690/609 1017/693/609 561/692/609
